<svg width="13" height="21" viewBox="0 0 13 21" fill="none" xmlns="http://www.w3.org/2000/svg">
<path d="M2.78995 20.0602C2.52674 20.0617 2.26581 20.0112 2.02214 19.9117C1.77846 19.8122 1.55683 19.6655 1.36995 19.4802C1.18249 19.2942 1.0337 19.073 0.932169 18.8293C0.830629 18.5856 0.778351 18.3242 0.778351 18.0602C0.778351 17.7961 0.830629 17.5347 0.932169 17.291C1.0337 17.0473 1.18249 16.8261 1.36995 16.6402L7.98995 10.0602L1.62995 3.44016C1.25745 3.06544 1.04836 2.55853 1.04836 2.03016C1.04836 1.50179 1.25745 0.994887 1.62995 0.620157C1.81588 0.432707 2.03708 0.283917 2.2808 0.182377C2.52451 0.0808375 2.78593 0.0285645 3.04995 0.0285645C3.31397 0.0285645 3.57538 0.0808375 3.8191 0.182377C4.06282 0.283917 4.28402 0.432707 4.46995 0.620157L12.1899 8.62016C12.5564 8.99402 12.7617 9.4967 12.7617 10.0202C12.7617 10.5437 12.5564 11.0463 12.1899 11.4202L4.18995 19.4202C4.01043 19.614 3.79428 19.7704 3.55399 19.8803C3.31369 19.9901 3.05401 20.0512 2.78995 20.0602Z" fill="#3671E9"/>
</svg>
