<svg width="81" height="81" viewBox="0 0 81 81" fill="none" xmlns="http://www.w3.org/2000/svg">
<g clip-path="url(#clip0_1_266)">
<g clip-path="url(#clip1_1_266)">
<g clip-path="url(#clip2_1_266)">
<path d="M40.8 80.97C62.8914 80.97 80.8 63.0614 80.8 40.97C80.8 18.8786 62.8914 0.969971 40.8 0.969971C18.7086 0.969971 0.800003 18.8786 0.800003 40.97C0.800003 63.0614 18.7086 80.97 40.8 80.97Z" fill="#C4C4C4"/>
<mask id="mask0_1_266" style="mask-type:luminance" maskUnits="userSpaceOnUse" x="0" y="0" width="81" height="81">
<path d="M80.8 0.969971H0.800003V80.97H80.8V0.969971Z" fill="white"/>
</mask>
<g mask="url(#mask0_1_266)">
<path d="M79.6034 50.643C74.259 72.083 52.5368 85.1161 31.1275 79.7714C9.68683 74.4271 -3.34629 52.7058 1.9984 31.2968C7.34277 9.85681 29.0334 -3.17632 50.474 2.16837C71.8834 7.48149 84.9481 29.2027 79.6034 50.643Z" fill="url(#paint0_linear_1_266)"/>
<path d="M59.8449 35.9858C60.6261 30.6733 56.5949 27.7983 51.0324 25.8921L52.8449 18.6733L48.4699 17.5796L46.7199 24.6108C45.5636 24.3296 44.3761 24.0483 43.1886 23.7983L44.9386 16.7358L40.5636 15.6421L38.7824 22.8296C37.8136 22.6108 36.8761 22.3921 35.9699 22.1733V22.1421L29.9074 20.6421L28.7511 25.3296C28.7511 25.3296 32.0011 26.0796 31.9386 26.1108C33.7199 26.5483 34.0324 27.7358 33.9699 28.6733L31.9074 36.8921C32.0324 36.9233 32.1886 36.9546 32.3761 37.0483C32.2199 37.0171 32.0636 36.9858 31.9074 36.9233L29.0324 48.4233C28.8136 48.9546 28.2511 49.7671 27.0324 49.4546C27.0636 49.5171 23.8449 48.6733 23.8449 48.6733L21.6574 53.7046L27.3761 55.1421C28.4386 55.4233 29.4699 55.6733 30.5011 55.9546L28.6886 63.2358L33.0636 64.3296L34.8761 57.1108C36.0636 57.4233 37.2511 57.7358 38.3761 58.0171L36.5949 65.2046L40.9699 66.2983L42.7824 59.0171C50.2824 60.4233 55.9074 59.8608 58.2511 53.0796C60.1574 47.6421 58.1574 44.4858 54.2199 42.4233C57.1261 41.7671 59.2824 39.8608 59.8449 35.9858ZM49.8136 50.0483C48.4699 55.4858 39.2824 52.5483 36.3136 51.7983L38.7199 42.1421C41.6886 42.8921 51.2511 44.3608 49.8136 50.0483ZM51.1886 35.8921C49.9386 40.8608 42.3136 38.3296 39.8449 37.7046L42.0324 28.9546C44.5011 29.5796 52.4699 30.7358 51.1886 35.8921Z" fill="white"/>
</g>
</g>
</g>
</g>
<defs>
<linearGradient id="paint0_linear_1_266" x1="40.7784" y1="0.95077" x2="40.7784" y2="80.9618" gradientUnits="userSpaceOnUse">
<stop stop-color="#F9AA4B"/>
<stop offset="1" stop-color="#F7931A"/>
</linearGradient>
<clipPath id="clip0_1_266">
<rect width="80" height="80" fill="white" transform="translate(0.800003 0.969971)"/>
</clipPath>
<clipPath id="clip1_1_266">
<rect width="80" height="80" fill="white" transform="translate(0.800003 0.969971)"/>
</clipPath>
<clipPath id="clip2_1_266">
<rect width="80" height="80" fill="white" transform="translate(0.800003 0.969971)"/>
</clipPath>
</defs>
</svg>
