<svg width="41" height="41" viewBox="0 0 41 41" fill="none" xmlns="http://www.w3.org/2000/svg">
<path d="M26.3675 5.37539C24.8472 3.73399 22.7238 2.83008 20.38 2.83008C18.0238 2.83008 15.8933 3.72852 14.38 5.35977C12.8503 7.00899 12.105 9.25039 12.28 11.6707C12.6269 16.4457 16.2605 20.3301 20.38 20.3301C24.4995 20.3301 28.1269 16.4465 28.4792 11.6723C28.6566 9.27383 27.9066 7.03711 26.3675 5.37539Z" fill="#3671E9"/>
<path d="M34.1299 37.8301H6.6299C6.26995 37.8348 5.91348 37.7592 5.58643 37.6087C5.25938 37.4583 4.96998 37.2369 4.73927 36.9606C4.23146 36.3535 4.02677 35.5246 4.17834 34.6863C4.83771 31.0285 6.89552 27.9559 10.1299 25.7988C13.0033 23.884 16.6432 22.8301 20.3799 22.8301C24.1166 22.8301 27.7565 23.8848 30.6299 25.7988C33.8643 27.9551 35.9221 31.0278 36.5815 34.6856C36.733 35.5238 36.5283 36.3528 36.0205 36.9598C35.7899 37.2363 35.5005 37.4578 35.1735 37.6084C34.8464 37.7589 34.4899 37.8347 34.1299 37.8301Z" fill="#3671E9"/>
</svg>
