<svg width="41" height="41" viewBox="0 0 41 41" fill="none" xmlns="http://www.w3.org/2000/svg">
<path d="M32.8943 7.96648C31.2722 6.32833 29.3424 5.02682 27.2158 4.13673C25.0892 3.24664 22.8077 2.78551 20.5023 2.77984C18.1969 2.77417 15.9131 3.22406 13.7821 4.10367C11.6512 4.98328 9.71501 6.27527 8.08486 7.90542C6.45471 9.53557 5.16272 11.4718 4.28311 13.6028C3.4035 15.7337 2.95361 18.0175 2.95928 20.3229C2.96496 22.6283 3.42608 24.9098 4.31617 27.0364C5.20626 29.163 6.50777 31.0928 8.14592 32.7149C9.76803 34.3531 11.6978 35.6546 13.8244 36.5447C15.9511 37.4348 18.2326 37.8959 20.538 37.9016C22.8433 37.9073 25.1271 37.4574 27.2581 36.5778C29.3891 35.6982 31.3252 34.4062 32.9554 32.776C34.5855 31.1459 35.8775 29.2097 36.7571 27.0787C37.6368 24.9477 38.0867 22.6639 38.081 20.3586C38.0753 18.0532 37.6142 15.7717 36.7241 13.645C35.834 11.5184 34.5325 9.58859 32.8943 7.96648ZM5.52014 20.3407C5.51958 19.0132 5.6956 17.6914 6.04358 16.4103C6.61702 17.6446 7.44983 18.711 8.01623 19.9774C8.74826 21.6056 10.7139 21.154 11.5818 22.5806C12.3522 23.847 11.5295 25.4485 12.1061 26.7735C12.5248 27.7353 13.5123 27.9454 14.1936 28.6485C14.8897 29.3579 14.8748 30.3298 14.9811 31.2548C15.101 32.3416 15.2954 33.4189 15.5631 34.479C15.5631 34.4868 15.5631 34.4954 15.5693 34.5032C9.72327 32.4501 5.52014 26.8774 5.52014 20.3407ZM20.5201 35.3407C19.6824 35.3405 18.8462 35.2704 18.0201 35.1314C18.0287 34.9196 18.0326 34.722 18.0537 34.5845C18.2436 33.3423 18.8654 32.1274 19.7045 31.1978C20.5334 30.2806 21.6693 29.6603 22.3693 28.6196C23.0553 27.604 23.2607 26.2368 22.9779 25.0501C22.5615 23.297 20.1795 22.7118 18.8951 21.761C18.1568 21.2142 17.4998 20.3688 16.5303 20.3001C16.0834 20.2688 15.7092 20.3649 15.2662 20.2509C14.86 20.1454 14.5412 19.9267 14.1084 19.9837C13.2998 20.0899 12.7897 20.954 11.9209 20.8368C11.0967 20.7267 10.2475 19.7618 10.06 18.9767C9.81936 17.9673 10.6178 17.6399 11.4732 17.5501C11.8303 17.5126 12.2311 17.472 12.574 17.6032C13.0256 17.7704 13.2389 18.2126 13.6443 18.436C14.4045 18.8532 14.5584 18.1868 14.442 17.5118C14.2678 16.5009 14.0647 16.0892 14.9662 15.3931C15.5912 14.9134 16.1256 14.5665 16.0256 13.7048C15.9662 13.1985 15.6889 12.9696 15.9475 12.4657C16.1436 12.0821 16.6818 11.736 17.0326 11.5071C17.9381 10.9165 20.9115 10.9603 19.6967 9.30711C19.3397 8.82195 18.6811 7.95476 18.0561 7.83601C17.2748 7.68836 16.9279 8.56023 16.3834 8.94461C15.8209 9.34226 14.7256 9.79383 14.1623 9.17898C13.4045 8.35164 14.6647 8.08054 14.9436 7.50242C15.0725 7.23289 14.9436 6.85867 14.7264 6.50633C15.0081 6.38758 15.2946 6.27742 15.5857 6.17586C15.7682 6.31062 15.9847 6.39179 16.2107 6.41023C16.7334 6.44461 17.2264 6.16179 17.6826 6.51804C18.1889 6.90867 18.5537 7.40242 19.2256 7.52429C19.8756 7.64226 20.5639 7.26336 20.7248 6.59773C20.8225 6.19304 20.7248 5.7657 20.6311 5.34773C23.5529 5.36454 26.4055 6.23959 28.8342 7.86414C28.6779 7.80476 28.4912 7.81179 28.2607 7.91883C27.7865 8.13914 27.1147 8.70008 27.0592 9.25633C26.9959 9.88758 27.9271 9.97664 28.3693 9.97664C29.0334 9.97664 29.7061 9.67976 29.492 8.91258C29.399 8.57976 29.2725 8.23367 29.0686 8.0243C29.5587 8.36442 30.0283 8.73329 30.4748 9.12898C30.4678 9.13601 30.4607 9.14226 30.4537 9.15008C30.0037 9.61883 29.4811 9.98992 29.1732 10.5603C28.9561 10.9618 28.7115 11.1524 28.2717 11.2563C28.0295 11.3134 27.7529 11.3345 27.5498 11.497C26.9842 11.9423 27.3061 13.0126 27.842 13.3337C28.5193 13.7392 29.524 13.5485 30.035 12.9696C30.4342 12.5165 30.6693 11.7298 31.3873 11.7306C31.7034 11.7299 32.007 11.8537 32.2326 12.0751C32.5295 12.3829 32.4709 12.6704 32.5342 13.0548C32.6459 13.7376 33.2482 13.3673 33.6146 13.0228C33.8817 13.4981 34.1227 13.9876 34.3365 14.4892C33.9334 15.0696 33.6131 15.7024 32.6436 15.0259C32.0631 14.6204 31.7061 14.0321 30.9771 13.8493C30.3404 13.6931 29.6881 13.8556 29.0592 13.9642C28.3443 14.0884 27.4967 14.1431 26.9545 14.6845C26.4303 15.2063 26.1529 15.9048 25.5951 16.429C24.5162 17.4446 24.0607 18.5532 24.7592 19.9892C25.4311 21.3696 26.8365 22.1188 28.3529 22.0204C29.8428 21.9212 31.3904 21.0571 31.3475 23.222C31.3318 23.9884 31.492 24.5189 31.7271 25.2306C31.9451 25.8868 31.9303 26.5228 31.9803 27.2001C32.0278 27.9933 32.1518 28.78 32.3506 29.5493C30.9503 31.3523 29.1564 32.8113 27.106 33.8151C25.0557 34.8188 22.803 35.3406 20.5201 35.3407Z" fill="#3671E9"/>
</svg>
