<svg width="81" height="81" viewBox="0 0 81 81" fill="none" xmlns="http://www.w3.org/2000/svg">
<g clip-path="url(#clip0_1_309)">
<g clip-path="url(#clip1_1_309)">
<g clip-path="url(#clip2_1_309)">
<mask id="mask0_1_309" style="mask-type:luminance" maskUnits="userSpaceOnUse" x="0" y="0" width="81" height="81">
<path d="M80.17 0.969971H0.169983V80.97H80.17V0.969971Z" fill="white"/>
</mask>
<g mask="url(#mask0_1_309)">
<path d="M40.17 80.97C62.2614 80.97 80.17 63.0614 80.17 40.97C80.17 18.8786 62.2614 0.969971 40.17 0.969971C18.0786 0.969971 0.169983 18.8786 0.169983 40.97C0.169983 63.0614 18.0786 80.97 40.17 80.97Z" fill="white"/>
<path d="M40.17 0.969971C32.2588 0.969971 24.5252 3.31593 17.9472 7.71118C11.3692 12.1065 6.24232 18.3536 3.21482 25.6627C0.187314 32.9717 -0.604819 41.0144 0.93859 48.7736C2.482 56.5328 6.29163 63.6602 11.8857 69.2543C17.4798 74.8484 24.6072 78.658 32.3664 80.2014C40.1256 81.7448 48.1683 80.9527 55.4774 77.9252C62.7864 74.8977 69.0335 69.7708 73.4288 63.1928C77.8241 56.6148 80.17 48.8812 80.17 40.97C80.17 30.3613 75.9557 20.1872 68.4543 12.6857C60.9528 5.18424 50.7787 0.969971 40.17 0.969971ZM39.2967 13.23H47.91C48.0862 13.2302 48.26 13.2712 48.4177 13.3496C48.5755 13.4281 48.713 13.5419 48.8195 13.6823C48.926 13.8227 48.9986 13.9858 49.0316 14.1588C49.0647 14.3319 49.0573 14.5103 49.01 14.68L42.2433 37.74L48.5934 35.8L47.2334 40.4167L40.82 42.2833L36.66 56.33H58.9133C59.0897 56.331 59.2635 56.3727 59.421 56.452C59.5786 56.5313 59.7157 56.6459 59.8215 56.787C59.9274 56.928 59.9992 57.0917 60.0313 57.2651C60.0635 57.4385 60.055 57.617 60.0067 57.7867L58.0667 64.4533C57.9738 64.7705 57.7807 65.049 57.5163 65.2473C57.252 65.4456 56.9305 65.553 56.6 65.5533H22.6133L28.3567 46.1467L22.0034 48.08L23.4033 43.5433L29.77 41.61L37.8434 14.3433C37.9319 14.0245 38.122 13.7433 38.3849 13.5423C38.6478 13.3414 38.9691 13.2317 39.3 13.23H39.2967Z" fill="#59C19C"/>
</g>
</g>
</g>
</g>
<defs>
<clipPath id="clip0_1_309">
<rect width="80" height="80" fill="white" transform="translate(0.169983 0.969971)"/>
</clipPath>
<clipPath id="clip1_1_309">
<rect width="80" height="80" fill="white" transform="translate(0.169983 0.969971)"/>
</clipPath>
<clipPath id="clip2_1_309">
<rect width="80" height="80" fill="white" transform="translate(0.169983 0.969971)"/>
</clipPath>
</defs>
</svg>
