<svg width="603" height="585" viewBox="0 0 603 585" fill="none" xmlns="http://www.w3.org/2000/svg">
<g clip-path="url(#clip0_1_48)">
<g clip-path="url(#clip1_1_48)">
<g opacity="0.3">
<path opacity="0.3" d="M602.429 555.185V546.505L600.047 545.168C599.37 549.256 594.548 551.969 590.5 552.53L563.059 568.593L551.09 572.913L512.842 553.17L513.732 552.667C510.46 551.136 508.697 547.648 506.935 544.451L504.36 545.982L502.83 546.428V555.321C502.931 556.332 503.295 557.298 503.886 558.125C504.478 558.951 505.276 559.608 506.2 560.029L544.563 582.155C547.087 583.426 549.873 584.089 552.697 584.089C555.523 584.089 558.309 583.426 560.831 582.155L599.137 560.029C600.045 559.613 600.83 558.97 601.417 558.162C602.004 557.355 602.372 556.409 602.488 555.418C602.497 555.341 602.497 555.262 602.488 555.185H602.429Z" fill="url(#paint0_linear_1_48)"/>
<path opacity="0.3" d="M590.499 552.53L563.058 568.593L552.639 572.352V584.093C555.471 584.152 558.271 583.485 560.772 582.155L599.079 560.029C599.986 559.612 600.771 558.97 601.358 558.162C601.945 557.355 602.314 556.409 602.429 555.418C602.439 555.341 602.439 555.262 602.429 555.185V546.505L600.241 545.284H600.008C599.273 549.314 594.509 551.891 590.499 552.53Z" fill="#0F054C"/>
<path opacity="0.3" d="M544.565 573.321L506.259 551.194C501.766 548.617 501.766 544.393 506.259 541.797L544.565 519.67C547.087 518.399 549.873 517.737 552.698 517.737C555.523 517.737 558.309 518.399 560.832 519.67L599.138 541.797C603.612 544.393 603.612 548.617 599.138 551.194L560.832 573.321C558.312 574.6 555.525 575.267 552.698 575.267C549.872 575.267 547.085 574.6 544.565 573.321Z" fill="url(#paint1_linear_1_48)"/>
<g opacity="0.3">
<path opacity="0.3" d="M544.565 573.321L506.259 551.194C501.766 548.617 501.766 544.393 506.259 541.797L544.565 519.67C547.087 518.399 549.873 517.737 552.698 517.737C555.523 517.737 558.309 518.399 560.832 519.67L599.138 541.797C603.612 544.393 603.612 548.617 599.138 551.194L560.832 573.321C558.312 574.6 555.525 575.267 552.698 575.267C549.872 575.267 547.085 574.6 544.565 573.321Z" fill="#0F054C"/>
</g>
</g>
<path d="M552.638 545.362C550.124 545.407 547.638 544.814 545.416 543.638L507.11 521.511C506.205 521.193 505.421 520.602 504.866 519.819C504.312 519.037 504.014 518.101 504.014 517.141C504.014 516.183 504.312 515.247 504.866 514.464C505.421 513.682 506.205 513.09 507.11 512.773L545.416 490.646C547.653 489.519 550.124 488.931 552.63 488.931C555.135 488.931 557.605 489.519 559.843 490.646L598.168 512.773C599.073 513.09 599.857 513.682 600.411 514.464C600.966 515.247 601.263 516.183 601.263 517.141C601.263 518.101 600.966 519.037 600.411 519.819C599.857 520.602 599.073 521.193 598.168 521.511L559.862 543.638C557.639 544.814 555.154 545.407 552.638 545.362ZM552.638 489.599C550.241 489.551 547.868 490.112 545.745 491.227L507.438 513.354C506.643 513.618 505.951 514.126 505.461 514.806C504.971 515.486 504.707 516.303 504.707 517.141C504.707 517.981 504.971 518.797 505.461 519.478C505.951 520.157 506.643 520.666 507.438 520.93L545.745 543.056C547.879 544.135 550.238 544.698 552.63 544.698C555.021 544.698 557.38 544.135 559.514 543.056L597.82 520.891C598.615 520.627 599.308 520.118 599.798 519.439C600.288 518.759 600.553 517.942 600.553 517.102C600.553 516.264 600.288 515.447 599.798 514.767C599.308 514.088 598.615 513.579 597.82 513.315L559.514 491.188C557.393 490.089 555.028 489.541 552.638 489.599Z" fill="#42E8E0"/>
<path opacity="0.4" d="M602.429 508.646V495.529L600.047 494.192C599.37 498.299 594.548 500.992 590.5 501.554L563.059 517.617L551.09 521.937L512.842 502.193L513.732 501.69C510.46 500.159 508.697 496.672 506.935 493.474L504.36 495.005L502.83 495.451V508.781C502.931 509.792 503.295 510.759 503.886 511.585C504.478 512.411 505.276 513.068 506.2 513.49L544.563 535.616C547.084 536.895 549.871 537.563 552.697 537.563C555.524 537.563 558.311 536.895 560.831 535.616L599.137 513.49C600.045 513.073 600.83 512.43 601.417 511.623C602.004 510.815 602.372 509.87 602.488 508.878C602.497 508.801 602.497 508.722 602.488 508.646H602.429Z" fill="#42E8E0"/>
<path d="M602.429 496.982V488.302L600.047 486.964C599.37 491.072 594.548 493.765 590.5 494.328L563.059 510.389L551.09 514.71L512.842 494.966L513.732 494.463C510.46 492.932 508.697 489.445 506.935 486.248L504.36 487.797L502.83 488.224V497.117C502.931 498.128 503.295 499.095 503.886 499.921C504.478 500.747 505.276 501.404 506.2 501.826L544.563 523.952C547.084 525.231 549.871 525.899 552.697 525.899C555.524 525.899 558.311 525.231 560.831 523.952L599.137 501.826C600.045 501.409 600.83 500.766 601.417 499.959C602.004 499.151 602.372 498.206 602.488 497.214C602.497 497.137 602.497 497.058 602.488 496.982H602.429Z" fill="url(#paint2_linear_1_48)"/>
<path opacity="0.3" d="M590.499 494.327L563.058 510.389L552.638 514.147V525.889C555.471 525.947 558.271 525.28 560.772 523.952L599.078 501.824C599.986 501.409 600.771 500.766 601.358 499.959C601.945 499.15 602.314 498.206 602.429 497.214C602.439 497.136 602.439 497.058 602.429 496.981V488.301L600.241 487.08H600.008C599.273 491.11 594.509 493.764 590.499 494.327Z" fill="#0F054C"/>
<path d="M544.564 515.077L506.258 492.951C501.765 490.355 501.765 486.131 506.258 483.554L544.564 461.485C547.085 460.205 549.872 459.539 552.698 459.539C555.525 459.539 558.312 460.205 560.832 461.485L599.138 483.612C603.611 486.189 603.611 490.413 599.138 493.009L560.773 515.077C558.258 516.339 555.483 516.996 552.669 516.996C549.855 516.996 547.08 516.339 544.564 515.077Z" fill="url(#paint3_linear_1_48)"/>
<path d="M599.078 493.01L560.772 515.078C558.249 516.349 555.463 517.011 552.639 517.011C549.814 517.011 547.028 516.349 544.505 515.078L506.199 492.952C505.362 492.557 504.628 491.977 504.051 491.255C503.473 490.533 503.068 489.688 502.868 488.786C502.597 490.724 503.72 492.661 506.199 494.018L544.562 516.202C547.083 517.482 549.87 518.149 552.696 518.149C555.523 518.149 558.31 517.482 560.83 516.202L599.136 494.075C600.159 493.65 601.026 492.919 601.619 491.983C602.211 491.047 602.501 489.951 602.448 488.844C602.242 489.75 601.83 490.596 601.246 491.319C600.662 492.04 599.921 492.619 599.078 493.01Z" fill="white"/>
<path d="M533.403 487.266L446.27 435.123L418.567 451.105H418.245L364.29 419.303L364.612 418.496L418.567 450.136L446.27 434.154L446.913 434.477L533.725 486.459L533.403 487.266Z" fill="url(#paint4_linear_1_48)"/>
<g opacity="0.3">
<path opacity="0.3" d="M100.172 554.246V545.565L97.7691 544.229C97.091 548.336 92.2666 551.03 88.2365 551.591L60.7622 567.654L48.7883 571.974L10.522 552.231L11.4133 551.727C8.13887 550.197 6.37569 546.709 4.61254 543.512L2.03564 545.062L0.504974 545.489V554.382C0.606395 555.393 0.97102 556.359 1.56255 557.186C2.15409 558.012 2.95184 558.669 3.87627 559.09L42.2007 581.216C44.7224 582.496 47.5104 583.164 50.3384 583.164C53.1662 583.164 55.9543 582.496 58.476 581.216L96.8003 559.09C97.7118 558.677 98.501 558.035 99.0916 557.226C99.6822 556.419 100.054 555.472 100.172 554.479C100.172 554.479 100.172 554.323 100.172 554.246Z" fill="url(#paint5_linear_1_48)"/>
<path opacity="0.3" d="M88.236 551.629L60.7618 567.692L50.3379 571.451V583.192C53.1712 583.251 55.9724 582.584 58.4754 581.254L96.7998 559.128C97.7112 558.715 98.5005 558.073 99.0911 557.265C99.6817 556.457 100.054 555.51 100.171 554.517C100.171 554.517 100.171 554.361 100.171 554.284V545.604L97.9624 544.383H97.7299C96.9936 548.375 92.2273 551.029 88.236 551.629Z" fill="#0F054C"/>
<path opacity="0.3" d="M42.2006 572.401L3.87626 550.274C-0.618827 547.677 -0.618827 543.454 3.87626 540.877L42.2006 518.692C44.7224 517.413 47.5104 516.745 50.3384 516.745C53.1662 516.745 55.9542 517.413 58.476 518.692L96.8003 540.818C101.276 543.396 101.276 547.62 96.8003 550.216L58.476 572.401C55.9515 573.672 53.1646 574.333 50.3384 574.333C47.5121 574.333 44.7251 573.672 42.2006 572.401Z" fill="url(#paint6_linear_1_48)"/>
<g opacity="0.3">
<path opacity="0.3" d="M42.2011 572.401L3.87665 550.274C-0.61843 547.677 -0.61843 543.454 3.87665 540.877L42.2011 518.692C44.7228 517.413 47.5108 516.745 50.3387 516.745C53.1666 516.745 55.9546 517.413 58.4764 518.692L96.8007 540.818C101.276 543.396 101.276 547.62 96.8007 550.216L58.4764 572.401C55.9519 573.672 53.165 574.333 50.3387 574.333C47.5125 574.333 44.7255 573.672 42.2011 572.401Z" fill="#0F054C"/>
</g>
</g>
<path d="M50.3384 540.199C47.8213 540.254 45.3324 539.66 43.1113 538.474L4.78689 516.348C3.88846 516.026 3.11142 515.434 2.56205 514.654C2.01267 513.873 1.7178 512.942 1.7178 511.989C1.7178 511.034 2.01267 510.103 2.56205 509.323C3.11142 508.542 3.88846 507.951 4.78689 507.629L43.1113 485.502C45.3507 484.366 47.8269 483.773 50.3384 483.773C52.8498 483.773 55.3258 484.366 57.5652 485.502L95.8897 507.629C96.7882 507.951 97.5652 508.542 98.1147 509.323C98.664 510.103 98.9588 511.034 98.9588 511.989C98.9588 512.942 98.664 513.873 98.1147 514.654C97.5652 515.434 96.7882 516.026 95.8897 516.348L57.5652 538.474C55.3443 539.66 52.8554 540.254 50.3384 540.199ZM43.4407 537.893C45.5763 538.973 47.9357 539.536 50.3286 539.536C52.7215 539.536 55.0809 538.973 57.2165 537.893L95.541 515.767C96.3971 515.572 97.1615 515.091 97.7092 514.405C98.2568 513.719 98.555 512.867 98.555 511.989C98.555 511.111 98.2568 510.258 97.7092 509.572C97.1615 508.885 96.3971 508.406 95.541 508.21L57.2165 486.084C55.0837 484.995 52.7232 484.428 50.3286 484.428C47.934 484.428 45.5736 484.995 43.4407 486.084L5.1163 508.21C4.26017 508.406 3.49569 508.885 2.9481 509.572C2.40051 510.258 2.10226 511.111 2.10226 511.989C2.10226 512.867 2.40051 513.719 2.9481 514.405C3.49569 515.091 4.26017 515.572 5.1163 515.767L43.4407 537.893Z" fill="#42E8E0"/>
<path opacity="0.4" d="M100.172 503.502V490.366L97.7691 489.028C97.091 493.137 92.2666 495.83 88.2364 496.391L60.7623 512.453L48.7882 516.755L10.522 497.012L11.4132 496.507C8.13884 494.976 6.37566 491.489 4.61251 488.293L2.03561 489.843L0.504944 490.268V503.619C0.598001 504.629 0.959611 505.597 1.55236 506.421C2.1451 507.245 2.9474 507.897 3.87624 508.307L42.2006 530.434C44.7223 531.714 47.5104 532.381 50.3384 532.381C53.1662 532.381 55.9542 531.714 58.4759 530.434L96.8003 508.307C97.7117 507.893 98.501 507.251 99.0916 506.444C99.6822 505.636 100.054 504.69 100.172 503.695C100.172 503.695 100.172 503.541 100.172 503.463V503.502Z" fill="#42E8E0"/>
<path d="M100.172 491.819V483.139L97.7691 481.801C97.091 485.909 92.2666 488.603 88.2364 489.164L60.7623 505.226L48.7882 509.547L10.522 489.804L11.4132 489.299C8.13884 487.769 6.37566 484.282 4.61251 481.104L2.03561 482.635L0.504944 483.061V491.973C0.609599 492.981 0.975726 493.944 1.56708 494.766C2.15842 495.588 2.95445 496.242 3.87624 496.663L42.2006 518.789C44.7223 520.069 47.5104 520.736 50.3384 520.736C53.1662 520.736 55.9542 520.069 58.4759 518.789L96.8003 496.663C97.7117 496.249 98.501 495.607 99.0916 494.8C99.6822 493.992 100.054 493.045 100.172 492.051C100.172 492.051 100.172 491.896 100.172 491.819Z" fill="url(#paint7_linear_1_48)"/>
<path d="M42.2006 509.973L3.87626 487.846C-0.618827 485.25 -0.618827 481.026 3.87626 478.45L42.2006 456.322C44.7224 455.043 47.5104 454.376 50.3384 454.376C53.1662 454.376 55.9542 455.043 58.476 456.322L96.8003 478.45C101.276 481.046 101.276 485.25 96.8003 487.846L58.476 509.973C55.9542 511.253 53.1662 511.92 50.3384 511.92C47.5104 511.92 44.7224 511.253 42.2006 509.973Z" fill="url(#paint8_linear_1_48)"/>
<path d="M50.3386 505.943C48.0653 505.994 45.8169 505.46 43.8091 504.393L13.8743 487.11C13.0557 486.82 12.3472 486.282 11.8462 485.573C11.3451 484.863 11.0762 484.016 11.0762 483.148C11.0762 482.279 11.3451 481.432 11.8462 480.722C12.3472 480.013 13.0557 479.476 13.8743 479.185L43.8091 461.903C45.8314 460.872 48.0689 460.334 50.3386 460.334C52.6085 460.334 54.846 460.872 56.8681 461.903L86.8031 479.185C87.6216 479.476 88.33 480.013 88.831 480.722C89.3321 481.432 89.6011 482.279 89.6011 483.148C89.6011 484.016 89.3321 484.863 88.831 485.573C88.33 486.282 87.6216 486.82 86.8031 487.11L56.8681 504.393C54.8603 505.46 52.612 505.994 50.3386 505.943ZM44.1385 503.812C46.0564 504.787 48.1775 505.295 50.329 505.295C52.4805 505.295 54.6015 504.787 56.5194 503.812L86.4737 486.529C87.1924 486.301 87.82 485.852 88.2655 485.244C88.7111 484.636 88.9512 483.901 88.9512 483.148C88.9512 482.394 88.7111 481.66 88.2655 481.052C87.82 480.444 87.1924 479.993 86.4737 479.767L56.5194 462.503C54.6015 461.528 52.4805 461.02 50.329 461.02C48.1775 461.02 46.0564 461.528 44.1385 462.503L14.2037 479.786C13.5308 480.079 12.9482 480.546 12.5157 481.138C12.0832 481.731 11.8165 482.427 11.7429 483.158C11.819 483.889 12.0865 484.587 12.5185 485.183C12.9505 485.778 13.5317 486.249 14.2037 486.549L44.1385 503.812Z" fill="#5351AF"/>
<path d="M96.8 487.847L58.4756 509.973C55.9539 511.253 53.1659 511.921 50.338 511.921C47.5101 511.921 44.722 511.253 42.2003 509.973L3.87591 487.847C3.03962 487.453 2.30458 486.872 1.72699 486.15C1.14939 485.428 0.74452 484.584 0.543348 483.681C0.499045 484.791 0.794299 485.889 1.38972 486.827C1.98514 487.765 2.85243 488.499 3.87591 488.932L42.2003 511.059C44.7247 512.329 47.5117 512.991 50.338 512.991C53.1642 512.991 55.9512 512.329 58.4756 511.059L96.8 488.932C97.8232 488.501 98.6895 487.766 99.2821 486.828C99.8745 485.889 100.165 484.79 100.113 483.681C99.9155 484.582 99.5141 485.426 98.9398 486.148C98.3655 486.87 97.6336 487.452 96.8 487.847Z" fill="white"/>
<path d="M55.0323 502.656L141.872 452.69L169.663 467.684L169.985 467.682L223.762 437.201L223.435 436.438L169.658 466.765L141.867 451.771L141.224 452.081L54.7057 501.892L55.0323 502.656Z" fill="url(#paint9_linear_1_48)"/>
<g opacity="0.3">
<path opacity="0.3" d="M601.402 203.111V194.431L599.002 193.093C598.324 197.182 593.504 199.895 589.479 200.456L562.03 216.499L550.068 220.839L511.839 201.096L512.729 200.572C509.458 199.061 507.697 195.554 505.934 192.377L503.36 193.908L501.831 194.333V203.246C501.922 204.258 502.283 205.227 502.875 206.051C503.468 206.876 504.27 207.526 505.199 207.935L543.487 230.062C546.006 231.342 548.791 232.008 551.617 232.008C554.442 232.008 557.227 231.342 559.747 230.062L598.034 207.935C598.945 207.522 599.733 206.88 600.323 206.072C600.913 205.265 601.285 204.318 601.402 203.324V203.111Z" fill="url(#paint10_linear_1_48)"/>
<path opacity="0.3" d="M589.478 200.456L562.03 216.499L551.616 220.277V232.018C554.447 232.077 557.245 231.409 559.746 230.081L598.033 207.955C598.944 207.541 599.732 206.899 600.322 206.091C600.912 205.284 601.284 204.337 601.402 203.343V203.13V194.45L599.214 193.229H598.982C598.207 197.239 593.465 199.895 589.478 200.456Z" fill="#0F054C"/>
<path opacity="0.3" d="M543.486 221.245L505.296 199.119C500.805 196.523 500.805 192.318 505.296 189.722L543.486 167.518C546.006 166.238 548.791 165.571 551.616 165.571C554.442 165.571 557.227 166.238 559.746 167.518L598.034 189.645C602.524 192.241 602.524 196.445 598.034 199.041L559.746 221.169C557.233 222.46 554.45 223.14 551.626 223.154C548.8 223.167 546.012 222.513 543.486 221.245Z" fill="url(#paint11_linear_1_48)"/>
<g opacity="0.3">
<path opacity="0.3" d="M543.486 221.245L505.296 199.119C500.805 196.523 500.805 192.318 505.296 189.722L543.486 167.518C546.006 166.238 548.791 165.571 551.616 165.571C554.442 165.571 557.227 166.238 559.746 167.518L598.034 189.645C602.524 192.241 602.524 196.445 598.034 199.041L559.746 221.169C557.233 222.46 554.45 223.14 551.626 223.154C548.8 223.167 546.012 222.513 543.486 221.245Z" fill="#0F054C"/>
</g>
</g>
<path d="M551.618 194.741C549.104 194.786 546.62 194.193 544.397 193.017L506.11 170.889C505.206 170.571 504.422 169.98 503.868 169.198C503.314 168.416 503.016 167.48 503.016 166.52C503.016 165.561 503.314 164.625 503.868 163.843C504.422 163.061 505.206 162.469 506.11 162.152L544.397 140.024C546.638 138.896 549.11 138.309 551.618 138.309C554.125 138.309 556.597 138.896 558.838 140.024L597.125 162.152C598.029 162.469 598.812 163.061 599.367 163.843C599.921 164.625 600.219 165.561 600.219 166.52C600.219 167.48 599.921 168.416 599.367 169.198C598.812 169.98 598.029 170.571 597.125 170.889L558.838 193.017C556.615 194.193 554.132 194.786 551.618 194.741ZM551.618 138.959C549.225 138.917 546.861 139.484 544.746 140.606L506.439 162.733C505.644 162.997 504.953 163.505 504.462 164.185C503.972 164.865 503.708 165.682 503.708 166.52C503.708 167.359 503.972 168.175 504.462 168.856C504.953 169.536 505.644 170.044 506.439 170.308L544.746 192.434C546.88 193.514 549.237 194.077 551.627 194.077C554.018 194.077 556.375 193.514 558.509 192.434L596.796 170.308C597.591 170.044 598.282 169.536 598.772 168.856C599.263 168.175 599.527 167.359 599.527 166.52C599.527 165.682 599.263 164.865 598.772 164.185C598.282 163.505 597.591 162.997 596.796 162.733L558.509 140.606C556.387 139.484 554.017 138.917 551.618 138.959Z" fill="#42E8E0"/>
<path opacity="0.4" d="M601.402 158.024V144.907L599.002 143.57C598.324 147.658 593.504 150.371 589.479 150.933L562.03 166.994L550.068 171.393L511.839 151.65L512.729 151.145C509.458 149.615 507.697 146.127 505.934 142.931L503.36 144.462L501.831 144.907V158.238C501.955 159.244 502.339 160.202 502.947 161.014C503.555 161.827 504.365 162.466 505.296 162.868L543.487 184.955C546.006 186.235 548.791 186.903 551.617 186.903C554.442 186.903 557.227 186.235 559.747 184.955L598.034 162.829C598.945 162.416 599.733 161.774 600.323 160.967C600.913 160.158 601.285 159.211 601.402 158.218V157.986V158.024Z" fill="#42E8E0"/>
<path d="M601.402 146.36V137.68L599.002 136.343C598.324 140.431 593.504 143.144 589.479 143.705L562.03 159.768L550.068 164.088L511.839 144.267L512.729 143.764C509.458 142.233 507.697 138.746 505.934 135.548L503.36 137.079L501.831 137.525V146.418C501.933 147.429 502.297 148.396 502.888 149.222C503.479 150.048 504.276 150.705 505.199 151.126L543.487 173.33C546.009 174.601 548.793 175.264 551.617 175.264C554.441 175.264 557.224 174.601 559.747 173.33L598.034 151.204C598.945 150.791 599.733 150.149 600.323 149.341C600.913 148.533 601.285 147.586 601.402 146.593V146.36Z" fill="url(#paint12_linear_1_48)"/>
<path opacity="0.3" d="M589.478 143.706L562.03 159.769L551.616 163.527V175.269C554.446 175.327 557.245 174.66 559.746 173.331L598.033 151.204C598.944 150.791 599.732 150.15 600.322 149.341C600.912 148.534 601.284 147.587 601.402 146.594V146.36V137.68L599.214 136.459H598.982C598.207 140.49 593.465 143.144 589.478 143.706Z" fill="#0F054C"/>
<path d="M512.729 143.841L549.023 122.954C549.831 122.549 550.722 122.338 551.626 122.338C552.53 122.338 553.422 122.549 554.229 122.954L589.865 143.551L589.478 143.783C593.504 143.221 598.324 140.508 599.002 136.42L558.991 114.139L547.377 111.058L537.893 116.638L505.954 135.703C507.697 138.822 509.458 142.33 512.729 143.841Z" fill="url(#paint13_linear_1_48)"/>
<path opacity="0.3" d="M551.616 112.124L547.358 110.98L537.873 116.561L505.934 135.626C507.696 138.823 509.458 142.311 512.729 143.841L549.023 122.954C549.816 122.517 550.711 122.296 551.616 122.315V112.124Z" fill="#0F054C"/>
<path d="M543.486 164.496L505.296 142.33C500.805 139.753 500.805 135.529 505.296 132.933L543.583 110.806C546.105 109.535 548.889 108.873 551.713 108.873C554.536 108.873 557.321 109.535 559.843 110.806L598.131 132.933C602.622 135.529 602.622 139.753 598.131 142.33L559.843 164.457C557.314 165.759 554.513 166.441 551.67 166.447C548.826 166.454 546.022 165.785 543.486 164.496ZM554.229 114.12C553.421 113.714 552.53 113.503 551.626 113.503C550.722 113.503 549.831 113.714 549.023 114.12L510.734 136.246C510.416 136.35 510.138 136.552 509.941 136.823C509.744 137.095 509.637 137.422 509.637 137.757C509.637 138.093 509.744 138.42 509.941 138.692C510.138 138.963 510.416 139.165 510.734 139.269L549.023 161.395C549.831 161.801 550.722 162.012 551.626 162.012C552.53 162.012 553.421 161.801 554.229 161.395L592.517 139.269C592.827 139.156 593.094 138.95 593.284 138.68C593.473 138.41 593.575 138.088 593.575 137.757C593.575 137.427 593.473 137.105 593.284 136.835C593.094 136.565 592.827 136.359 592.517 136.246L554.229 114.12Z" fill="url(#paint14_linear_1_48)"/>
<path d="M592.516 136.168L554.229 114.042C553.421 113.637 552.529 113.425 551.625 113.425C550.722 113.425 549.83 113.637 549.022 114.042L510.734 136.168C509.767 136.73 509.457 137.505 509.767 138.222C509.985 137.81 510.322 137.472 510.734 137.254L549.022 115.204C549.83 114.799 550.722 114.587 551.625 114.587C552.529 114.587 553.421 114.799 554.229 115.204L592.516 137.331C592.924 137.55 593.255 137.888 593.465 138.3C593.774 137.505 593.465 136.73 592.516 136.168Z" fill="white"/>
<path d="M598.035 142.33L559.748 164.456C557.228 165.737 554.443 166.403 551.618 166.403C548.792 166.403 546.007 165.737 543.488 164.456L505.297 142.33C504.461 141.941 503.726 141.365 503.149 140.645C502.572 139.927 502.167 139.084 501.968 138.184C501.925 139.291 502.221 140.385 502.816 141.32C503.41 142.255 504.276 142.986 505.297 143.415L543.488 165.58C546.007 166.86 548.792 167.527 551.618 167.527C554.443 167.527 557.228 166.86 559.748 165.58L598.035 143.453C599.056 143.024 599.922 142.294 600.517 141.359C601.112 140.424 601.408 139.33 601.365 138.222C601.16 139.115 600.753 139.951 600.176 140.662C599.599 141.374 598.866 141.945 598.035 142.33Z" fill="white"/>
<path d="M544.57 163.876L506.282 141.749C502.411 139.501 502.411 135.936 506.282 133.611L544.57 111.485C546.751 110.368 549.166 109.787 551.616 109.787C554.066 109.787 556.481 110.368 558.661 111.485L596.95 133.611C600.821 135.858 600.821 139.423 596.95 141.749L558.661 163.876C556.481 164.991 554.066 165.573 551.616 165.573C549.166 165.573 546.751 164.991 544.57 163.876ZM555.294 113.5C554.155 112.916 552.895 112.612 551.616 112.612C550.337 112.612 549.076 112.916 547.938 113.5L509.651 135.548C509.205 135.698 508.816 135.985 508.541 136.367C508.266 136.749 508.118 137.209 508.118 137.68C508.118 138.152 508.266 138.61 508.541 138.993C508.816 139.376 509.205 139.662 509.651 139.811L547.88 161.938C549.022 162.51 550.281 162.809 551.558 162.809C552.835 162.809 554.095 162.51 555.236 161.938L593.543 139.811C593.989 139.662 594.377 139.376 594.652 138.993C594.927 138.61 595.075 138.152 595.075 137.68C595.075 137.209 594.927 136.749 594.652 136.367C594.377 135.985 593.989 135.698 593.543 135.548L555.294 113.5Z" fill="url(#paint15_linear_1_48)"/>
<path opacity="0.4" d="M554.23 114.042C553.423 113.637 552.531 113.425 551.627 113.425C550.723 113.425 549.832 113.637 549.024 114.042L510.736 136.168C510.416 136.272 510.139 136.474 509.942 136.745C509.745 137.018 509.638 137.344 509.638 137.679C509.638 138.015 509.745 138.342 509.942 138.614C510.139 138.885 510.416 139.088 510.736 139.191L549.024 161.317C549.832 161.723 550.723 161.934 551.627 161.934C552.531 161.934 553.423 161.723 554.23 161.317L592.518 139.191C592.828 139.079 593.095 138.872 593.285 138.602C593.474 138.332 593.576 138.01 593.576 137.679C593.576 137.349 593.474 137.027 593.285 136.757C593.095 136.487 592.828 136.281 592.518 136.168L554.23 114.042Z" fill="#42E8E0"/>
<path d="M525.347 182.065L436.623 231.453L436.613 263.434L436.451 263.713L381.932 294.539L381.395 293.856L435.774 262.95L435.785 230.969L436.387 230.572L524.808 181.382L525.347 182.065Z" fill="url(#paint16_linear_1_48)"/>
<path opacity="0.5" d="M469.961 322.114L484.973 330.804V365.503L469.961 356.828V322.114Z" fill="#758EF5"/>
<path opacity="0.2" d="M454.949 330.804L469.962 339.479V356.828L454.949 348.154V330.804Z" fill="#758EF5"/>
<path opacity="0.5" d="M439.935 270.05L454.948 278.74V348.154L439.935 339.479V270.05Z" fill="#758EF5"/>
<path opacity="0.2" d="M424.907 244.026L439.935 252.701V339.479L424.907 330.804V244.026Z" fill="#758EF5"/>
<path opacity="0.5" d="M409.895 252.701L424.907 261.375V330.804L409.895 322.114V252.701Z" fill="#758EF5"/>
<path opacity="0.2" d="M394.881 191.963L409.894 200.638V322.114L394.881 313.439V191.963Z" fill="#758EF5"/>
<path opacity="0.5" d="M379.87 200.638L394.882 209.313V313.439L379.87 304.764V200.638Z" fill="#758EF5"/>
<path opacity="0.2" d="M364.857 209.312L379.87 217.987V304.763L364.857 296.089V209.312Z" fill="#758EF5"/>
<path opacity="0.5" d="M349.831 165.924L364.858 174.614V296.09L349.831 287.415V165.924Z" fill="#758EF5"/>
<path opacity="0.2" d="M334.818 122.551L349.83 131.225V287.415L334.818 278.724V122.551Z" fill="#758EF5"/>
<path opacity="0.5" d="M319.805 131.226L334.818 139.9V278.725L319.805 270.05V131.226Z" fill="#758EF5"/>
<path opacity="0.2" d="M304.793 87.8365L319.805 96.5112V270.05L304.793 261.375V87.8365Z" fill="#758EF5"/>
<path opacity="0.5" d="M289.764 79.1621L304.792 87.8367V261.375L289.764 252.701V79.1621Z" fill="#758EF5"/>
<path opacity="0.2" d="M274.752 35.7736L289.765 44.4482V252.701L274.752 244.026V35.7736Z" fill="#758EF5"/>
<path opacity="0.4" d="M289.5 494.243C365.462 494.243 427.043 458.658 427.043 414.762C427.043 370.866 365.462 335.281 289.5 335.281C213.538 335.281 151.958 370.866 151.958 414.762C151.958 458.658 213.538 494.243 289.5 494.243Z" fill="#0F054C"/>
<path d="M289.501 462.642C375.959 462.642 446.048 422.141 446.048 372.178C446.048 322.216 375.959 281.714 289.501 281.714C203.042 281.714 132.954 322.216 132.954 372.178C132.954 422.141 203.042 462.642 289.501 462.642Z" fill="url(#paint17_linear_1_48)"/>
<path opacity="0.48" d="M446.064 342.391H442.195C435.911 326.281 421.921 310.961 400.206 298.43C339.074 263.096 239.945 263.096 178.888 298.43C158.382 310.279 144.84 324.592 138.015 339.727H133.108V359.787C131.886 383.813 147.146 408.071 178.888 426.395C240.022 461.713 339.15 461.713 400.284 426.395C430.85 408.72 446.142 385.578 446.142 362.42L446.064 342.391Z" fill="url(#paint18_linear_1_48)"/>
<path opacity="0.48" d="M442.195 334.614C441.979 334.057 441.747 333.499 441.499 332.941V319.758H433.296V318.814C431.153 315.936 428.827 313.198 426.332 310.62V319.758H421.689V306.081C419.512 304.098 417.18 302.156 414.693 300.257V319.79H410.051V296.786C407.806 295.237 405.407 293.688 403.024 292.232V319.713H398.381V289.506C396.09 288.216 393.743 286.976 391.339 285.789V319.713H386.696V283.635C384.374 282.602 382.022 281.57 379.638 280.537V319.713H374.996V288.034H367.922V319.758H363.28V296.786H356.175V319.805H351.533V305.492H344.414V319.805H339.863V314.213H332.791V319.805H246.337V314.213H239.187V319.805H234.636V305.492H227.548V319.805H222.905V296.786H215.801V319.805H211.159V288.034H204.085V319.758H199.443V280.552C197.059 281.523 194.707 282.556 192.385 283.651V319.805H187.742V285.804C185.343 286.997 182.991 288.221 180.7 289.506V319.758H176.057V292.232C173.612 293.698 171.27 295.211 169.03 296.771V319.758H164.388V300.179C161.896 302.068 159.574 304.021 157.392 306.003V319.758H152.749V310.464C150.263 313.047 147.938 315.778 145.784 318.643V319.682H137.581V331.841H134.1V365.471C135.457 371.75 137.803 377.774 141.049 383.316V362.357H145.784V390.503C147.929 393.371 150.255 396.098 152.749 398.667V362.357H157.392V403.221C159.574 405.188 161.911 407.141 164.388 409.03V362.357H169.03V412.438C171.28 413.987 173.622 415.505 176.057 416.992V362.357H180.7V419.672C182.991 420.943 185.338 422.176 187.742 423.374V362.357H192.385V425.605C194.707 426.638 197.059 427.67 199.443 428.703V362.404H204.085V430.561C206.406 431.445 208.729 432.281 211.159 433.087V362.357H215.801V434.449C218.154 435.178 220.445 435.86 222.905 436.51V362.357H227.548V437.749C229.901 438.323 232.268 438.88 234.667 439.391V362.404H239.218V440.336C241.586 440.801 243.969 441.219 246.368 441.622V362.357H250.903V442.272C253.271 442.629 255.669 442.938 258.068 443.233V362.357H262.572V443.728C264.956 443.961 267.354 444.162 269.769 444.348V362.357H274.242V444.642C276.656 444.766 279.055 444.875 281.469 444.952V362.357H285.927V445.045C288.362 445.045 290.792 445.045 293.216 445.045V362.357H297.674V444.952C300.088 444.952 302.487 444.766 304.901 444.642V362.357H309.374V444.348C311.789 444.162 314.187 443.961 316.571 443.713V362.357H321.075V443.217C323.474 442.938 325.872 442.613 328.24 442.272V362.357H332.791V441.56C335.19 441.173 337.573 440.738 339.941 440.274V362.357H344.49V439.298C346.889 438.772 349.258 438.23 351.61 437.641V362.357H356.253V436.495C358.636 435.844 361.004 435.147 363.356 434.435V362.357H368V432.947C370.383 432.157 372.751 431.398 375.072 430.438V362.357H379.716V428.625C382.099 427.649 384.452 426.643 386.773 425.527V362.357H391.416V423.374C393.821 422.176 396.168 420.943 398.458 419.672V362.357H403.101V416.961C405.547 415.474 407.889 413.951 410.127 412.391V362.357H414.771V408.984C417.247 407.073 419.579 405.131 421.766 403.159V362.357H426.409V398.62C428.908 396.045 431.234 393.308 433.374 390.426V362.357H438.032V383.254C441.304 377.663 443.65 371.579 444.981 365.239V334.63L442.195 334.614Z" fill="url(#paint19_linear_1_48)"/>
<path d="M289.501 425.11C375.959 425.11 446.048 384.607 446.048 334.646C446.048 284.684 375.959 244.182 289.501 244.182C203.042 244.182 132.954 284.684 132.954 334.646C132.954 384.607 203.042 425.11 289.501 425.11Z" fill="url(#paint20_linear_1_48)"/>
<path opacity="0.3" d="M289.563 244.119C254.09 244.119 218.618 251.044 189.738 264.877L143.029 366.493C150.644 378.188 162.545 389.141 178.812 398.543C189.309 404.525 200.392 409.415 211.885 413.135L289.563 244.119Z" fill="#91A2FA"/>
<path opacity="0.3" d="M333.423 247.806L253.068 422.631C272.486 425.27 292.133 425.789 311.663 424.18L385.626 263.25C368.954 255.897 351.411 250.706 333.423 247.806Z" fill="#91A2FA"/>
<g opacity="0.05">
<path opacity="0.05" d="M289.501 414.762C366.07 414.762 428.142 378.893 428.142 334.646C428.142 290.398 366.07 254.529 289.501 254.529C212.932 254.529 150.86 290.398 150.86 334.646C150.86 378.893 212.932 414.762 289.501 414.762Z" fill="url(#paint21_linear_1_48)"/>
<g opacity="0.05">
<path opacity="0.05" d="M41.8576 334.305L40.3718 333.438L281.902 193.869L283.388 194.736L41.8576 334.305Z" fill="#91A2FA"/>
<path opacity="0.05" d="M46.1135 336.752L44.6276 335.9L286.158 196.331L287.644 197.184L46.1135 336.752Z" fill="#91A2FA"/>
<path opacity="0.05" d="M50.3701 339.215L48.8844 338.363L290.415 198.795L291.901 199.646L50.3701 339.215Z" fill="#91A2FA"/>
<path opacity="0.05" d="M54.626 341.678L53.1402 340.826L294.671 201.258L296.157 202.109L54.626 341.678Z" fill="#91A2FA"/>
<path opacity="0.05" d="M58.8823 344.141L57.3965 343.274L298.927 203.705L300.413 204.573L58.8823 344.141Z" fill="#91A2FA"/>
<path opacity="0.05" d="M63.1381 346.589L61.6524 345.737L303.182 206.168L304.668 207.02L63.1381 346.589Z" fill="#91A2FA"/>
<path opacity="0.05" d="M67.3944 349.052L65.9087 348.199L307.439 208.63L308.909 209.483L67.3944 349.052Z" fill="#91A2FA"/>
<path opacity="0.05" d="M71.6507 351.514L70.1649 350.662L311.695 211.094L313.166 211.946L71.6507 351.514Z" fill="#91A2FA"/>
<path opacity="0.05" d="M75.9065 353.978L74.4207 353.11L315.951 213.542L317.422 214.394L75.9065 353.978Z" fill="#91A2FA"/>
<path opacity="0.05" d="M80.1628 356.425L78.677 355.573L320.208 216.005L321.678 216.857L80.1628 356.425Z" fill="#91A2FA"/>
<path opacity="0.05" d="M84.4031 358.888L82.9328 358.036L324.463 218.468L325.933 219.32L84.4031 358.888Z" fill="#91A2FA"/>
<path opacity="0.05" d="M88.6594 361.351L87.1891 360.499L328.72 220.93L330.19 221.783L88.6594 361.351Z" fill="#91A2FA"/>
<path opacity="0.05" d="M92.9157 363.798L91.4454 362.946L332.976 223.377L334.446 224.229L92.9157 363.798Z" fill="#91A2FA"/>
<path opacity="0.05" d="M97.1719 366.261L95.7017 365.409L337.233 225.841L338.703 226.693L97.1719 366.261Z" fill="#91A2FA"/>
<path opacity="0.05" d="M101.428 368.724L99.9576 367.872L341.488 228.304L342.959 229.156L101.428 368.724Z" fill="#91A2FA"/>
<path opacity="0.05" d="M105.685 371.187L104.199 370.336L345.729 230.752L347.215 231.619L105.685 371.187Z" fill="#91A2FA"/>
<path opacity="0.05" d="M109.941 373.65L108.455 372.783L349.985 233.214L351.471 234.067L109.941 373.65Z" fill="#91A2FA"/>
<path opacity="0.05" d="M114.196 376.098L112.711 375.246L354.241 235.678L355.727 236.529L114.196 376.098Z" fill="#91A2FA"/>
<path opacity="0.05" d="M118.452 378.561L116.967 377.709L358.497 238.14L359.983 238.992L118.452 378.561Z" fill="#91A2FA"/>
<path opacity="0.05" d="M122.709 381.024L121.223 380.157L362.754 240.588L364.24 241.455L122.709 381.024Z" fill="#91A2FA"/>
<path opacity="0.05" d="M126.965 383.471L125.48 382.618L367.009 243.05L368.495 243.903L126.965 383.471Z" fill="#91A2FA"/>
<path opacity="0.05" d="M131.221 385.934L129.735 385.082L371.265 245.513L372.751 246.365L131.221 385.934Z" fill="#91A2FA"/>
<path opacity="0.05" d="M135.477 388.397L133.991 387.545L375.522 247.977L377.008 248.829L135.477 388.397Z" fill="#91A2FA"/>
<path opacity="0.05" d="M139.733 390.86L138.247 390.008L379.778 250.424L381.264 251.292L139.733 390.86Z" fill="#91A2FA"/>
<path opacity="0.05" d="M143.989 393.307L142.504 392.456L384.034 252.887L385.519 253.739L143.989 393.307Z" fill="#91A2FA"/>
<path opacity="0.05" d="M148.246 395.77L146.76 394.918L388.29 255.349L389.76 256.202L148.246 395.77Z" fill="#91A2FA"/>
<path opacity="0.05" d="M152.501 398.233L151.016 397.381L392.547 257.813L394.017 258.664L152.501 398.233Z" fill="#91A2FA"/>
<path opacity="0.05" d="M156.742 400.696L155.272 399.829L396.803 260.26L398.273 261.128L156.742 400.696Z" fill="#91A2FA"/>
<path opacity="0.05" d="M160.998 403.144L159.528 402.292L401.059 262.724L402.529 263.575L160.998 403.144Z" fill="#91A2FA"/>
<path opacity="0.05" d="M165.254 405.607L163.784 404.755L405.314 265.186L406.784 266.038L165.254 405.607Z" fill="#91A2FA"/>
<path opacity="0.05" d="M169.511 408.07L168.041 407.217L409.571 267.648L411.041 268.501L169.511 408.07Z" fill="#91A2FA"/>
<path opacity="0.05" d="M173.766 410.532L172.296 409.665L413.827 270.097L415.297 270.949L173.766 410.532Z" fill="#91A2FA"/>
<path opacity="0.05" d="M178.022 412.98L176.552 412.128L418.068 272.56L419.553 273.411L178.022 412.98Z" fill="#91A2FA"/>
<path opacity="0.05" d="M182.278 415.443L180.808 414.592L422.339 275.023L423.809 275.875L182.278 415.443Z" fill="#91A2FA"/>
<path opacity="0.05" d="M186.535 417.907L185.065 417.055L426.579 277.471L428.065 278.338L186.535 417.907Z" fill="#91A2FA"/>
<path opacity="0.05" d="M190.791 420.369L189.321 419.501L430.836 279.933L432.321 280.8L190.791 420.369Z" fill="#91A2FA"/>
<path opacity="0.05" d="M195.047 422.816L193.561 421.964L435.092 282.396L436.578 283.248L195.047 422.816Z" fill="#91A2FA"/>
<path opacity="0.05" d="M199.303 425.28L197.818 424.428L439.349 284.86L440.834 285.712L199.303 425.28Z" fill="#91A2FA"/>
<path opacity="0.05" d="M203.56 427.743L202.074 426.891L443.605 287.307L445.091 288.174L203.56 427.743Z" fill="#91A2FA"/>
<path opacity="0.05" d="M207.815 430.206L206.33 429.339L447.86 289.77L449.345 290.638L207.815 430.206Z" fill="#91A2FA"/>
<path opacity="0.05" d="M212.072 432.652L210.586 431.801L452.116 292.232L453.602 293.084L212.072 432.652Z" fill="#91A2FA"/>
<path opacity="0.05" d="M216.328 435.115L214.843 434.264L456.374 294.695L457.859 295.547L216.328 435.115Z" fill="#91A2FA"/>
<path opacity="0.05" d="M220.584 437.579L219.098 436.728L460.629 297.159L462.115 298.011L220.584 437.579Z" fill="#91A2FA"/>
<path opacity="0.05" d="M224.84 440.043L223.355 439.175L464.885 299.607L466.37 300.459L224.84 440.043Z" fill="#91A2FA"/>
<path opacity="0.05" d="M229.097 442.49L227.611 441.637L469.141 302.069L470.627 302.922L229.097 442.49Z" fill="#91A2FA"/>
<path opacity="0.05" d="M233.353 444.952L231.867 444.1L473.398 304.532L474.883 305.384L233.353 444.952Z" fill="#91A2FA"/>
<path opacity="0.05" d="M237.608 447.415L236.122 446.563L477.653 306.979L479.139 307.847L237.608 447.415Z" fill="#91A2FA"/>
<path opacity="0.05" d="M241.865 449.863L240.379 449.011L481.91 309.442L483.38 310.294L241.865 449.863Z" fill="#91A2FA"/>
<path opacity="0.05" d="M246.121 452.326L244.635 451.475L486.165 311.906L487.635 312.758L246.121 452.326Z" fill="#91A2FA"/>
<path opacity="0.05" d="M250.361 454.789L248.891 453.937L490.421 314.368L491.891 315.221L250.361 454.789Z" fill="#91A2FA"/>
<path opacity="0.05" d="M254.618 457.252L253.146 456.4L494.677 316.816L496.147 317.683L254.618 457.252Z" fill="#91A2FA"/>
<path opacity="0.05" d="M258.874 459.699L257.404 458.847L498.935 319.279L500.405 320.131L258.874 459.699Z" fill="#91A2FA"/>
<path opacity="0.05" d="M263.131 462.162L261.66 461.31L503.191 321.742L504.661 322.594L263.131 462.162Z" fill="#91A2FA"/>
<path opacity="0.05" d="M267.386 464.626L265.916 463.774L507.446 324.206L508.916 325.058L267.386 464.626Z" fill="#91A2FA"/>
<path opacity="0.05" d="M271.642 467.089L270.156 466.221L511.686 326.653L513.171 327.52L271.642 467.089Z" fill="#91A2FA"/>
<path opacity="0.05" d="M275.897 469.536L274.411 468.684L515.942 329.115L517.428 329.967L275.897 469.536Z" fill="#91A2FA"/>
<path opacity="0.05" d="M280.154 471.998L278.668 471.147L520.199 331.578L521.684 332.43L280.154 471.998Z" fill="#91A2FA"/>
<path opacity="0.05" d="M284.409 474.462L282.923 473.61L524.454 334.042L525.94 334.893L284.409 474.462Z" fill="#91A2FA"/>
<path opacity="0.05" d="M288.666 476.924L287.18 476.057L528.71 336.489L530.195 337.356L288.666 476.924Z" fill="#91A2FA"/>
<path opacity="0.05" d="M292.922 479.372L291.436 478.52L532.966 338.952L534.452 339.804L292.922 479.372Z" fill="#91A2FA"/>
<path opacity="0.05" d="M297.177 481.835L295.691 480.983L537.222 341.415L538.707 342.267L297.177 481.835Z" fill="#91A2FA"/>
</g>
</g>
<path d="M191.472 283.388C245.64 252.113 333.393 252.113 387.547 283.388C413.424 298.352 426.92 317.745 428.065 337.341C429.303 315.949 415.807 294.324 387.547 277.997C333.379 246.706 245.61 246.706 191.472 277.997C163.212 294.324 149.685 315.949 150.954 337.341C152.099 317.745 165.642 298.336 191.472 283.388Z" fill="url(#paint22_linear_1_48)"/>
<path d="M332.357 317.683C324.102 316.951 315.795 318.342 308.229 321.726C317.515 313.981 315.374 306.065 301.806 297.979L300.799 297.391C296.399 294.767 291.675 292.731 286.747 291.334C282.083 289.974 277.257 289.249 272.4 289.18C267.763 289.21 263.146 289.814 258.656 290.977C256.149 291.618 253.755 292.331 251.475 293.115L242.746 288.065L229.901 295.485L237.082 299.653C235.812 300.334 234.529 301.047 233.213 301.805L228.569 304.532L221.45 300.411L208.604 307.831L215.724 311.951L206.856 317.079L203.389 319.093L202.445 319.62L187.711 328.139L200.557 335.575L215.291 327.055L307.873 380.589L293.123 389.11L305.969 396.529L320.718 388.009L325.129 385.469L333.997 380.342L341.24 384.524L354.086 377.104L349.443 374.456L346.797 372.906L355.324 367.98L362.567 372.162L375.413 364.743L370.77 362.094L367.087 359.956C372.147 355.542 374.825 351.081 375.166 346.588C375.537 339.875 369.965 333.164 358.451 326.451L357.676 325.986C349.927 321.437 341.293 318.605 332.357 317.683ZM246.12 314.678L250.252 312.277C260.488 306.37 270.29 306.112 279.659 311.503C285.138 314.601 288.109 317.559 288.619 320.177C289.13 322.795 286.561 325.738 280.881 328.992L275.882 331.872L246.12 314.678ZM328.642 362.357L293.092 341.864L298.231 338.889C303.116 335.792 308.792 334.178 314.574 334.242C319.671 334.49 325.553 336.555 332.217 340.438C338.161 343.878 341.37 347.053 341.844 349.966C342.324 352.877 339.723 355.975 334.106 359.259L328.642 362.357Z" fill="url(#paint23_linear_1_48)"/>
<path d="M208.527 297.406V305.647L215.647 301.527L208.527 297.406Z" fill="url(#paint24_linear_1_48)"/>
<path d="M229.9 285.06V293.302L237.081 289.227L229.9 285.06Z" fill="url(#paint25_linear_1_48)"/>
<path d="M313.909 301.542V311.332L307.47 307.382L313.909 301.542Z" fill="url(#paint26_linear_1_48)"/>
<path d="M375.244 334.646V346.604L365.586 340.625L375.244 334.646Z" fill="url(#paint27_linear_1_48)"/>
<path d="M332.357 307.258C324.102 306.527 315.795 307.918 308.229 311.302C317.515 303.556 315.374 295.636 301.806 287.539L300.799 286.966C296.399 284.343 291.675 282.306 286.747 280.909C282.085 279.542 277.258 278.817 272.4 278.756C267.763 278.786 263.146 279.389 258.656 280.553C256.149 281.183 253.755 281.896 251.475 282.691L242.746 277.641L229.901 285.06L237.082 289.227C235.812 289.909 234.529 290.622 233.213 291.381L228.569 294.107L221.45 289.987L208.604 297.407L215.724 301.527L206.856 306.654L203.389 308.652L202.445 309.195L187.711 317.714L200.557 325.149L215.291 316.63L307.95 370.165L293.201 378.685L306.047 386.105L320.796 377.585L325.207 375.045L334.075 369.917L341.318 374.1L354.163 366.68L349.521 364.031L346.874 362.482L355.402 357.556L362.645 361.738L375.491 354.318L370.847 351.67L367.164 349.532C372.225 345.117 374.903 340.656 375.243 336.164C375.615 329.451 370.043 322.738 358.528 316.026L357.754 315.576C349.986 311.005 341.323 308.167 332.357 307.258ZM246.12 304.253L250.252 301.852C260.488 295.945 270.29 295.687 279.659 301.078C285.138 304.175 288.109 307.135 288.62 309.753C289.13 312.37 286.561 315.313 280.881 318.566L275.882 321.448L246.12 304.253ZM328.642 351.933L293.154 331.439L298.293 328.464C303.177 325.368 308.853 323.753 314.636 323.818C319.733 324.066 325.614 326.131 332.279 330.014C338.222 333.453 341.432 336.628 341.906 339.54C342.385 342.453 339.786 345.55 334.168 348.834L328.642 351.933Z" fill="url(#paint28_linear_1_48)"/>
<path d="M375.459 354.334V364.758L362.613 372.178V361.753L375.459 354.334Z" fill="url(#paint29_linear_1_48)"/>
<path d="M354.086 366.68V377.105L341.24 384.524V374.099L354.086 366.68Z" fill="url(#paint30_linear_1_48)"/>
<path d="M305.983 386.105V396.53L293.122 389.11V378.685L305.983 386.105Z" fill="url(#paint31_linear_1_48)"/>
<path d="M187.634 317.714V328.154L200.48 335.575V325.149L187.634 317.714Z" fill="url(#paint32_linear_1_48)"/>
<path d="M215.213 327.055V316.63L200.479 325.149V335.575L215.213 327.055Z" fill="url(#paint33_linear_1_48)"/>
<path d="M215.212 316.63V327.055L298.849 375.385L307.872 370.165L215.212 316.63Z" fill="url(#paint34_linear_1_48)"/>
<path d="M291.421 259.253C285.956 259.367 280.553 258.076 275.727 255.505C271.363 252.995 268.964 249.588 268.964 245.932C268.964 242.276 271.363 238.883 275.727 236.359C284.379 231.37 298.463 231.37 307.13 236.359C311.479 238.883 313.878 242.292 313.878 245.932C313.878 249.572 311.479 252.995 307.13 255.505C302.299 258.076 296.891 259.367 291.421 259.253ZM291.421 234.314C286.253 234.219 281.146 235.44 276.578 237.861C272.787 240.06 270.698 242.927 270.698 245.932C270.698 248.937 272.787 251.818 276.594 254.018C284.766 258.742 298.075 258.742 306.263 254.018C310.054 251.818 312.159 248.953 312.159 245.932C312.159 242.911 310.054 240.06 306.263 237.861C301.696 235.438 296.588 234.217 291.421 234.314Z" fill="#91A2FA"/>
<path d="M300.723 251.307C297.846 252.771 294.665 253.534 291.437 253.534C288.209 253.534 285.028 252.771 282.151 251.307C277.013 248.348 277.013 243.562 282.151 240.572C285.028 239.109 288.209 238.345 291.437 238.345C294.665 238.345 297.846 239.109 300.723 240.572C305.846 243.531 305.846 248.348 300.723 251.307Z" fill="#97A6FC"/>
<path d="M345.635 219.923L336.426 214.609L352.104 205.548L361.328 210.861L345.635 219.923Z" fill="#91A2FA"/>
<path opacity="0.8" d="M329.075 211.528L317.468 208.104L327.543 196.688L339.15 200.111L329.075 211.528Z" fill="#91A2FA"/>
<path opacity="0.6" d="M308.832 206.478L295.971 205.301L299.438 192.645L312.3 193.822L308.832 206.478Z" fill="#91A2FA"/>
<path opacity="0.4" d="M286.886 205.301L274.009 206.478L270.541 193.822L283.403 192.645L286.886 205.301Z" fill="#91A2FA"/>
<path opacity="0.2" d="M265.374 208.104L253.765 211.528L243.706 200.096L255.297 196.688L265.374 208.104Z" fill="#91A2FA"/>
<path opacity="0.1" d="M246.414 214.609L237.205 219.923L221.527 210.861L230.735 205.548L246.414 214.609Z" fill="#91A2FA"/>
<path opacity="0.2" d="M314.899 234.252L311.664 232.377L335.065 218.854L338.3 220.728L314.899 234.252Z" fill="#91A2FA"/>
<path opacity="0.4" d="M307.486 230.627L303.416 229.419L318.443 212.379L322.514 213.588L307.486 230.627Z" fill="#91A2FA"/>
<path opacity="0.6" d="M298.525 228.505L294.005 228.086L299.175 209.204L303.694 209.622L298.525 228.505Z" fill="#91A2FA"/>
<path opacity="0.8" d="M288.852 228.086L284.332 228.505L279.148 209.622L283.667 209.204L288.852 228.086Z" fill="#91A2FA"/>
<path d="M279.427 229.419L275.356 230.627L260.327 213.588L264.414 212.379L279.427 229.419Z" fill="#91A2FA"/>
<path d="M271.192 232.377L267.957 234.252L244.556 220.728L247.791 218.854L271.192 232.377Z" fill="#91A2FA"/>
<path d="M264.924 236.653L262.85 239.007L233.367 230.317L235.441 227.963L264.924 236.653Z" fill="#91A2FA"/>
<path d="M261.255 241.842L260.543 244.444L227.856 241.455L228.568 238.837L261.255 241.842Z" fill="#91A2FA"/>
<path d="M260.543 247.419L261.255 250.036L228.568 253.026L227.856 250.408L260.543 247.419Z" fill="#91A2FA"/>
<path d="M262.85 252.872L264.924 255.226L235.441 263.901L233.367 261.546L262.85 252.872Z" fill="#91A2FA"/>
<path d="M267.957 257.627L271.192 259.502L247.791 273.024L244.556 271.15L267.957 257.627Z" fill="#91A2FA"/>
<path opacity="0.6" d="M383.337 202.031C417.742 226.01 419.661 260.291 389.141 285.447L401.522 296.864C443.634 266.534 442.706 222.866 398.783 193.078L383.337 202.031Z" fill="#97A6FC"/>
<path opacity="0.2" d="M310.039 314.013C273.654 317.312 235.117 310.914 207.088 294.68C200.968 291.2 195.258 287.044 190.064 282.289L169.062 286.471C175.819 293.12 183.421 298.849 191.674 303.51C227.13 323.988 276.795 331.269 322.328 325.367L310.039 314.013Z" fill="#91A2FA"/>
<path d="M151.852 257.503L172.854 253.321C169.139 233.307 180.592 212.534 207.088 197.199C250.98 171.841 320.548 170.385 367.412 192.815L382.812 183.924C327.419 156.599 244.093 158.054 191.72 188.323C159.079 207.175 145.8 232.982 151.852 257.503Z" fill="#97A6FC"/>
<path d="M278.56 291.505L270.341 286.765L375.862 225.779L384.08 230.519L278.56 291.505Z" fill="#97A6FC"/>
<path opacity="0.8" d="M290.229 298.258L282.01 293.503L327.884 266.999L336.101 271.754L290.229 298.258Z" fill="#97A6FC"/>
<path opacity="0.6" d="M302.719 305.477L294.501 300.721L367.521 258.541L375.738 263.281L302.719 305.477Z" fill="#97A6FC"/>
<path opacity="0.2" d="M315.023 312.571L306.789 307.831L363.635 274.992L371.853 279.732L315.023 312.571Z" fill="#97A6FC"/>
</g>
</g>
<defs>
<linearGradient id="paint0_linear_1_48" x1="512.745" y1="529.242" x2="591.797" y2="574.858" gradientUnits="userSpaceOnUse">
<stop stop-color="#BCBEFF"/>
<stop offset="0.23" stop-color="#AAADF8"/>
<stop offset="0.68" stop-color="#7C83E5"/>
<stop offset="1" stop-color="#5761D7"/>
</linearGradient>
<linearGradient id="paint1_linear_1_48" x1="502.83" y1="546.505" x2="602.43" y2="546.505" gradientUnits="userSpaceOnUse">
<stop stop-color="#E9E9FD"/>
<stop offset="0.36" stop-color="#D3D2F9"/>
<stop offset="0.71" stop-color="#C5C4F7"/>
<stop offset="1" stop-color="#C0BFF6"/>
</linearGradient>
<linearGradient id="paint2_linear_1_48" x1="52186.3" y1="9497.81" x2="53931.8" y2="12031.7" gradientUnits="userSpaceOnUse">
<stop stop-color="#BCBEFF"/>
<stop offset="0.23" stop-color="#AAADF8"/>
<stop offset="0.68" stop-color="#7C83E5"/>
<stop offset="1" stop-color="#5761D7"/>
</linearGradient>
<linearGradient id="paint3_linear_1_48" x1="51645.1" y1="14029.8" x2="56767.7" y2="14029.8" gradientUnits="userSpaceOnUse">
<stop stop-color="#E9E9FD"/>
<stop offset="0.36" stop-color="#D3D2F9"/>
<stop offset="0.71" stop-color="#C5C4F7"/>
<stop offset="1" stop-color="#C0BFF6"/>
</linearGradient>
<linearGradient id="paint4_linear_1_48" x1="364.249" y1="452.86" x2="533.776" y2="452.86" gradientUnits="userSpaceOnUse">
<stop stop-color="#5778FF"/>
<stop offset="0.1042" stop-color="#567FFF"/>
<stop offset="0.2607" stop-color="#5394FF"/>
<stop offset="0.4503" stop-color="#4DB6FF"/>
<stop offset="0.6638" stop-color="#46E4FF"/>
<stop offset="0.7742" stop-color="#42FFFF"/>
</linearGradient>
<linearGradient id="paint5_linear_1_48" x1="42907.1" y1="11802.9" x2="44652.5" y2="14336.9" gradientUnits="userSpaceOnUse">
<stop stop-color="#BCBEFF"/>
<stop offset="0.23" stop-color="#AAADF8"/>
<stop offset="0.68" stop-color="#7C83E5"/>
<stop offset="1" stop-color="#5761D7"/>
</linearGradient>
<linearGradient id="paint6_linear_1_48" x1="42390.6" y1="17382.5" x2="47516.7" y2="17382.5" gradientUnits="userSpaceOnUse">
<stop stop-color="#E9E9FD"/>
<stop offset="0.36" stop-color="#D3D2F9"/>
<stop offset="0.71" stop-color="#C5C4F7"/>
<stop offset="1" stop-color="#C0BFF6"/>
</linearGradient>
<linearGradient id="paint7_linear_1_48" x1="42907" y1="10458.5" x2="44652" y2="12991.8" gradientUnits="userSpaceOnUse">
<stop stop-color="#BCBEFF"/>
<stop offset="0.23" stop-color="#AAADF8"/>
<stop offset="0.68" stop-color="#7C83E5"/>
<stop offset="1" stop-color="#5761D7"/>
</linearGradient>
<linearGradient id="paint8_linear_1_48" x1="42390.6" y1="15453.2" x2="47516.7" y2="15453.2" gradientUnits="userSpaceOnUse">
<stop stop-color="#E9E9FD"/>
<stop offset="0.36" stop-color="#D3D2F9"/>
<stop offset="0.71" stop-color="#C5C4F7"/>
<stop offset="1" stop-color="#C0BFF6"/>
</linearGradient>
<linearGradient id="paint9_linear_1_48" x1="223.99" y1="469.027" x2="54.466" y2="470.028" gradientUnits="userSpaceOnUse">
<stop stop-color="#5778FF"/>
<stop offset="0.1042" stop-color="#567FFF"/>
<stop offset="0.2607" stop-color="#5394FF"/>
<stop offset="0.4503" stop-color="#4DB6FF"/>
<stop offset="0.6638" stop-color="#46E4FF"/>
<stop offset="0.7742" stop-color="#42FFFF"/>
</linearGradient>
<linearGradient id="paint10_linear_1_48" x1="26522.7" y1="5145.57" x2="28268.2" y2="7677.4" gradientUnits="userSpaceOnUse">
<stop stop-color="#BCBEFF"/>
<stop offset="0.23" stop-color="#AAADF8"/>
<stop offset="0.68" stop-color="#7C83E5"/>
<stop offset="1" stop-color="#5761D7"/>
</linearGradient>
<linearGradient id="paint11_linear_1_48" x1="25988.1" y1="7875.37" x2="31105.1" y2="7875.37" gradientUnits="userSpaceOnUse">
<stop stop-color="#E9E9FD"/>
<stop offset="0.36" stop-color="#D3D2F9"/>
<stop offset="0.71" stop-color="#C5C4F7"/>
<stop offset="1" stop-color="#C0BFF6"/>
</linearGradient>
<linearGradient id="paint12_linear_1_48" x1="26522.7" y1="3935.86" x2="28273.2" y2="6469.55" gradientUnits="userSpaceOnUse">
<stop stop-color="#BCBEFF"/>
<stop offset="0.23" stop-color="#AAADF8"/>
<stop offset="0.68" stop-color="#7C83E5"/>
<stop offset="1" stop-color="#5761D7"/>
</linearGradient>
<linearGradient id="paint13_linear_1_48" x1="516.484" y1="117.355" x2="586.957" y2="158.003" gradientUnits="userSpaceOnUse">
<stop offset="0.24" stop-color="#5761D7"/>
<stop offset="0.39" stop-color="#7A82E5"/>
<stop offset="0.55" stop-color="#979CF0"/>
<stop offset="0.7" stop-color="#ACAFF8"/>
<stop offset="0.85" stop-color="#B8BAFD"/>
<stop offset="1" stop-color="#BCBEFF"/>
</linearGradient>
<linearGradient id="paint14_linear_1_48" x1="26012.9" y1="6131.13" x2="31134.8" y2="6131.13" gradientUnits="userSpaceOnUse">
<stop stop-color="#E9E9FD"/>
<stop offset="0.36" stop-color="#D3D2F9"/>
<stop offset="0.71" stop-color="#C5C4F7"/>
<stop offset="1" stop-color="#C0BFF6"/>
</linearGradient>
<linearGradient id="paint15_linear_1_48" x1="25297.1" y1="5944.97" x2="30107.3" y2="5944.97" gradientUnits="userSpaceOnUse">
<stop stop-color="#E9E9FD"/>
<stop offset="0.36" stop-color="#D3D2F9"/>
<stop offset="0.71" stop-color="#C5C4F7"/>
<stop offset="1" stop-color="#C0BFF6"/>
</linearGradient>
<linearGradient id="paint16_linear_1_48" x1="410.974" y1="311.352" x2="495.737" y2="164.538" gradientUnits="userSpaceOnUse">
<stop stop-color="#5778FF"/>
<stop offset="0.1042" stop-color="#567FFF"/>
<stop offset="0.2607" stop-color="#5394FF"/>
<stop offset="0.4503" stop-color="#4DB6FF"/>
<stop offset="0.6638" stop-color="#46E4FF"/>
<stop offset="0.7742" stop-color="#42FFFF"/>
</linearGradient>
<linearGradient id="paint17_linear_1_48" x1="99581" y1="-16143" x2="118480" y2="14541.4" gradientUnits="userSpaceOnUse">
<stop stop-color="#35068C"/>
<stop offset="0.02" stop-color="#40DDDA"/>
<stop offset="0.09" stop-color="#3AAEC0"/>
<stop offset="0.17" stop-color="#3484A9"/>
<stop offset="0.26" stop-color="#2F6195"/>
<stop offset="0.35" stop-color="#2B4486"/>
<stop offset="0.44" stop-color="#282E79"/>
<stop offset="0.54" stop-color="#261E71"/>
<stop offset="0.66" stop-color="#24156C"/>
<stop offset="0.82" stop-color="#24126A"/>
</linearGradient>
<linearGradient id="paint18_linear_1_48" x1="109.321" y1="362.358" x2="419.321" y2="362.358" gradientUnits="userSpaceOnUse">
<stop stop-color="#3671E9"/>
<stop offset="0.15" stop-color="#91A2FA"/>
<stop offset="0.33" stop-color="#8B97F1"/>
<stop offset="0.52" stop-color="#7366C8"/>
<stop offset="0.72" stop-color="#654CB3"/>
<stop offset="0.93" stop-color="#4127A7"/>
<stop offset="1" stop-color="#260672"/>
</linearGradient>
<linearGradient id="paint19_linear_1_48" x1="22088.6" y1="44964.2" x2="84535.5" y2="44964.2" gradientUnits="userSpaceOnUse">
<stop stop-color="#42E8E0"/>
<stop offset="0.15" stop-color="#43E3E0"/>
<stop offset="0.33" stop-color="#45D5DF"/>
<stop offset="0.52" stop-color="#49BDDD"/>
<stop offset="0.72" stop-color="#4E9CDB"/>
<stop offset="0.93" stop-color="#5472D8"/>
<stop offset="1" stop-color="#5761D7"/>
</linearGradient>
<linearGradient id="paint20_linear_1_48" x1="102307" y1="-22166.9" x2="121206" y2="8517.62" gradientUnits="userSpaceOnUse">
<stop stop-color="#654CB2"/>
<stop offset="0.02" stop-color="#40DDDA"/>
<stop offset="0.09" stop-color="#3AAEC0"/>
<stop offset="0.17" stop-color="#3484A9"/>
<stop offset="0.26" stop-color="#2F6195"/>
<stop offset="0.35" stop-color="#2B4486"/>
<stop offset="0.44" stop-color="#282E79"/>
<stop offset="0.54" stop-color="#261E71"/>
<stop offset="0.66" stop-color="#24156C"/>
<stop offset="0.82" stop-color="#24126A"/>
</linearGradient>
<linearGradient id="paint21_linear_1_48" x1="265.064" y1="212.411" x2="342.656" y2="599.815" gradientUnits="userSpaceOnUse">
<stop stop-color="#42E8E0"/>
<stop offset="0.02" stop-color="#40DDDA"/>
<stop offset="0.09" stop-color="#3AAEC0"/>
<stop offset="0.17" stop-color="#3484A9"/>
<stop offset="0.26" stop-color="#2F6195"/>
<stop offset="0.35" stop-color="#2B4486"/>
<stop offset="0.44" stop-color="#282E79"/>
<stop offset="0.54" stop-color="#261E71"/>
<stop offset="0.66" stop-color="#24156C"/>
<stop offset="0.82" stop-color="#24126A"/>
</linearGradient>
<linearGradient id="paint22_linear_1_48" x1="150.876" y1="295.935" x2="428.142" y2="295.935" gradientUnits="userSpaceOnUse">
<stop stop-color="#2B237C"/>
<stop offset="1" stop-color="#180D5B"/>
</linearGradient>
<linearGradient id="paint23_linear_1_48" x1="19935.8" y1="28313" x2="42715.4" y2="28313" gradientUnits="userSpaceOnUse">
<stop stop-color="#2B237C"/>
<stop offset="1" stop-color="#180D5B"/>
</linearGradient>
<linearGradient id="paint24_linear_1_48" x1="1067.9" y1="2178.88" x2="1072" y2="2238.4" gradientUnits="userSpaceOnUse">
<stop stop-color="#2B237D"/>
<stop offset="0.02" stop-color="#40DDDA"/>
<stop offset="0.09" stop-color="#3AAEC0"/>
<stop offset="0.17" stop-color="#3484A9"/>
<stop offset="0.26" stop-color="#2F6195"/>
<stop offset="0.35" stop-color="#2B4486"/>
<stop offset="0.44" stop-color="#282E79"/>
<stop offset="0.54" stop-color="#261E71"/>
<stop offset="0.66" stop-color="#24156C"/>
<stop offset="0.82" stop-color="#24126A"/>
</linearGradient>
<linearGradient id="paint25_linear_1_48" x1="1196.06" y1="2100.86" x2="1200.03" y2="2160.38" gradientUnits="userSpaceOnUse">
<stop stop-color="#2C247E"/>
<stop offset="0.02" stop-color="#40DDDA"/>
<stop offset="0.09" stop-color="#3AAEC0"/>
<stop offset="0.17" stop-color="#3484A9"/>
<stop offset="0.26" stop-color="#2F6195"/>
<stop offset="0.35" stop-color="#2B4486"/>
<stop offset="0.44" stop-color="#282E79"/>
<stop offset="0.54" stop-color="#261E71"/>
<stop offset="0.66" stop-color="#24156C"/>
<stop offset="0.82" stop-color="#24126A"/>
</linearGradient>
<linearGradient id="paint26_linear_1_48" x1="1495.67" y1="2563.4" x2="1503.23" y2="2647.31" gradientUnits="userSpaceOnUse">
<stop stop-color="#2B237C"/>
<stop offset="1" stop-color="#180D5B"/>
</linearGradient>
<linearGradient id="paint27_linear_1_48" x1="2495.64" y1="3396.89" x2="2579.16" y2="3411.06" gradientUnits="userSpaceOnUse">
<stop stop-color="#2B237C"/>
<stop offset="1" stop-color="#180D5B"/>
</linearGradient>
<linearGradient id="paint28_linear_1_48" x1="20913" y1="26202.6" x2="90445.1" y2="51430" gradientUnits="userSpaceOnUse">
<stop stop-color="#654DB3"/>
<stop offset="0.0899" stop-color="#40DDDA"/>
<stop offset="0.09" stop-color="#E9E9FE"/>
<stop offset="0.17" stop-color="#654DB3"/>
<stop offset="0.26" stop-color="#2F6195"/>
<stop offset="0.35" stop-color="#2B4486"/>
<stop offset="0.44" stop-color="#282E79"/>
<stop offset="0.54" stop-color="#261E71"/>
<stop offset="0.66" stop-color="#24156C"/>
<stop offset="0.82" stop-color="#24126A"/>
</linearGradient>
<linearGradient id="paint29_linear_1_48" x1="3167.73" y1="5191.4" x2="3305.93" y2="5212.26" gradientUnits="userSpaceOnUse">
<stop stop-color="#2B237C"/>
<stop offset="1" stop-color="#180D5B"/>
</linearGradient>
<linearGradient id="paint30_linear_1_48" x1="2969.09" y1="5345.97" x2="3107.28" y2="5366.83" gradientUnits="userSpaceOnUse">
<stop stop-color="#2B237C"/>
<stop offset="1" stop-color="#180D5B"/>
</linearGradient>
<linearGradient id="paint31_linear_1_48" x1="2512.32" y1="5492.87" x2="2682.58" y2="5518.61" gradientUnits="userSpaceOnUse">
<stop stop-color="#2B237C"/>
<stop offset="1" stop-color="#180D5B"/>
</linearGradient>
<linearGradient id="paint32_linear_1_48" x1="1586.15" y1="4605.83" x2="1610.16" y2="4896.9" gradientUnits="userSpaceOnUse">
<stop stop-color="#2C247D"/>
<stop offset="0.02" stop-color="#40DDDA"/>
<stop offset="0.09" stop-color="#3AAEC0"/>
<stop offset="0.17" stop-color="#3484A9"/>
<stop offset="0.26" stop-color="#2F6195"/>
<stop offset="0.35" stop-color="#2B4486"/>
<stop offset="0.44" stop-color="#282E79"/>
<stop offset="0.54" stop-color="#261E71"/>
<stop offset="0.66" stop-color="#24156C"/>
<stop offset="0.82" stop-color="#24126A"/>
</linearGradient>
<linearGradient id="paint33_linear_1_48" x1="1936.13" y1="4862.8" x2="1958.98" y2="5162.95" gradientUnits="userSpaceOnUse">
<stop stop-color="#2B237C"/>
<stop offset="1" stop-color="#180D5B"/>
</linearGradient>
<linearGradient id="paint34_linear_1_48" x1="14225.3" y1="13981.3" x2="14348.9" y2="17277.3" gradientUnits="userSpaceOnUse">
<stop stop-color="#91A2FA"/>
<stop offset="0.0199" stop-color="#91A2FA"/>
<stop offset="0.02" stop-color="#654DB3"/>
<stop offset="0.09" stop-color="#654DB3"/>
<stop offset="0.17" stop-color="#654DB3"/>
<stop offset="0.26" stop-color="#654CB3"/>
<stop offset="0.35" stop-color="#35068C"/>
<stop offset="0.44" stop-color="#35068C"/>
<stop offset="0.54" stop-color="#35068C"/>
<stop offset="0.66" stop-color="#35068C"/>
<stop offset="0.82" stop-color="#35068C"/>
</linearGradient>
<clipPath id="clip0_1_48">
<rect width="602" height="584.05" fill="white" transform="translate(0.5 0.890015)"/>
</clipPath>
<clipPath id="clip1_1_48">
<rect width="601.99" height="584.05" fill="white" transform="translate(0.504944 0.890015)"/>
</clipPath>
</defs>
</svg>
