<svg width="24" height="29" viewBox="0 0 24 29" fill="none" xmlns="http://www.w3.org/2000/svg">
<g clip-path="url(#clip0_1_364)">
<g clip-path="url(#clip1_1_364)">
<path d="M20.47 2.32997H3.53C3.33958 2.32733 3.1505 2.36222 2.97356 2.43266C2.79663 2.50309 2.6353 2.60769 2.4988 2.74048C2.36229 2.87328 2.25328 3.03166 2.17799 3.20658C2.1027 3.38151 2.06261 3.56955 2.06 3.75997V20.9C2.06261 21.0904 2.1027 21.2785 2.17799 21.4534C2.25328 21.6283 2.36229 21.7867 2.4988 21.9195C2.6353 22.0523 2.79663 22.1569 2.97356 22.2273C3.1505 22.2978 3.33958 22.3326 3.53 22.33H20.47C20.6604 22.3326 20.8495 22.2978 21.0264 22.2273C21.2034 22.1569 21.3647 22.0523 21.5012 21.9195C21.6377 21.7867 21.7467 21.6283 21.822 21.4534C21.8973 21.2785 21.9374 21.0904 21.94 20.9V3.75997C21.9374 3.56955 21.8973 3.38151 21.822 3.20658C21.7467 3.03166 21.6377 2.87328 21.5012 2.74048C21.3647 2.60769 21.2034 2.50309 21.0264 2.43266C20.8495 2.36222 20.6604 2.32733 20.47 2.32997ZM8.09 19.07H5.09V10.07H8.09V19.07ZM6.59 8.80997C6.17626 8.80997 5.77947 8.64562 5.48691 8.35306C5.19435 8.0605 5.03 7.66371 5.03 7.24997C5.03 6.83623 5.19435 6.43944 5.48691 6.14689C5.77947 5.85433 6.17626 5.68997 6.59 5.68997C6.80969 5.66506 7.03217 5.68683 7.24287 5.75386C7.45357 5.82089 7.64774 5.93166 7.81265 6.07893C7.97757 6.22621 8.10952 6.40665 8.19987 6.60845C8.29021 6.81026 8.33692 7.02887 8.33692 7.24997C8.33692 7.47108 8.29021 7.68969 8.19987 7.89149C8.10952 8.09329 7.97757 8.27374 7.81265 8.42101C7.64774 8.56828 7.45357 8.67906 7.24287 8.74609C7.03217 8.81312 6.80969 8.83489 6.59 8.80997ZM18.91 19.07H15.91V14.24C15.91 13.03 15.48 12.24 14.39 12.24C14.0527 12.2425 13.7242 12.3483 13.4488 12.5432C13.1735 12.7381 12.9645 13.0127 12.85 13.33C12.7717 13.565 12.7378 13.8126 12.75 14.06V19.06H9.75C9.75 19.06 9.75 10.88 9.75 10.06H12.75V11.33C13.0225 10.8571 13.4189 10.4675 13.8964 10.2032C14.374 9.93886 14.9146 9.80982 15.46 9.82997C17.46 9.82997 18.91 11.12 18.91 13.89V19.07Z" fill="white"/>
</g>
</g>
<defs>
<clipPath id="clip0_1_364">
<rect width="24" height="24" fill="white" transform="translate(0 0.330078)"/>
</clipPath>
<clipPath id="clip1_1_364">
<rect width="24" height="24" fill="white" transform="translate(0 0.330078)"/>
</clipPath>
</defs>
</svg>
