<svg width="24" height="29" viewBox="0 0 24 29" fill="none" xmlns="http://www.w3.org/2000/svg">
<g clip-path="url(#clip0_1_349)">
<g clip-path="url(#clip1_1_349)">
<path d="M17.34 5.79008C17.1027 5.79008 16.8707 5.86046 16.6733 5.99232C16.476 6.12417 16.3222 6.31159 16.2313 6.53086C16.1405 6.75013 16.1168 6.99141 16.1631 7.22419C16.2094 7.45697 16.3236 7.67079 16.4915 7.83861C16.6593 8.00643 16.8731 8.12072 17.1059 8.16702C17.3387 8.21332 17.5799 8.18956 17.7992 8.09874C18.0185 8.00791 18.2059 7.8541 18.3378 7.65676C18.4696 7.45943 18.54 7.22742 18.54 6.99008C18.54 6.67182 18.4136 6.3666 18.1885 6.14155C17.9635 5.91651 17.6583 5.79008 17.34 5.79008ZM21.94 8.21008C21.9206 7.38038 21.7652 6.55948 21.48 5.78008C21.2257 5.11321 20.83 4.50936 20.32 4.01008C19.8248 3.49751 19.2196 3.10426 18.55 2.86008C17.7727 2.56624 16.9508 2.40729 16.12 2.39008C15.06 2.33008 14.72 2.33008 12 2.33008C9.28 2.33008 8.94 2.33008 7.88 2.39008C7.04915 2.40729 6.22734 2.56624 5.45 2.86008C4.78168 3.10673 4.17693 3.49964 3.68 4.01008C3.16743 4.50526 2.77418 5.11052 2.53 5.78008C2.23616 6.55742 2.07721 7.37923 2.06 8.21008C2 9.27008 2 9.61008 2 12.3301C2 15.0501 2 15.3901 2.06 16.4501C2.07721 17.2809 2.23616 18.1028 2.53 18.8801C2.77418 19.5497 3.16743 20.1549 3.68 20.6501C4.17693 21.1605 4.78168 21.5535 5.45 21.8001C6.22734 22.0939 7.04915 22.2529 7.88 22.2701C8.94 22.3301 9.28 22.3301 12 22.3301C14.72 22.3301 15.06 22.3301 16.12 22.2701C16.9508 22.2529 17.7727 22.0939 18.55 21.8001C19.2196 21.5559 19.8248 21.1627 20.32 20.6501C20.8322 20.1527 21.2283 19.5483 21.48 18.8801C21.7652 18.1007 21.9206 17.2798 21.94 16.4501C21.94 15.3901 22 15.0501 22 12.3301C22 9.61008 22 9.27008 21.94 8.21008ZM20.14 16.3301C20.1327 16.9649 20.0178 17.5938 19.8 18.1901C19.6403 18.6253 19.3839 19.0185 19.05 19.3401C18.7256 19.6706 18.3332 19.9265 17.9 20.0901C17.3037 20.3079 16.6748 20.4228 16.04 20.4301C15.04 20.4801 14.67 20.4901 12.04 20.4901C9.41 20.4901 9.04 20.4901 8.04 20.4301C7.38089 20.4424 6.72459 20.341 6.1 20.1301C5.68578 19.9582 5.31136 19.7029 5 19.3801C4.66809 19.0588 4.41484 18.6653 4.26 18.2301C4.01586 17.6253 3.88044 16.982 3.86 16.3301C3.86 15.3301 3.8 14.9601 3.8 12.3301C3.8 9.70008 3.8 9.33008 3.86 8.33008C3.86448 7.68114 3.98295 7.03803 4.21 6.43008C4.38605 6.00799 4.65627 5.63174 5 5.33008C5.30381 4.98625 5.67929 4.71318 6.1 4.53008C6.70955 4.31012 7.352 4.19516 8 4.19008C9 4.19008 9.37 4.13008 12 4.13008C14.63 4.13008 15 4.13008 16 4.19008C16.6348 4.19736 17.2637 4.31233 17.86 4.53008C18.3144 4.69873 18.7223 4.97293 19.05 5.33008C19.3777 5.63726 19.6338 6.01281 19.8 6.43008C20.0223 7.03901 20.1373 7.68186 20.14 8.33008C20.19 9.33008 20.2 9.70008 20.2 12.3301C20.2 14.9601 20.19 15.3301 20.14 16.3301ZM12 7.20008C10.9858 7.20206 9.99496 7.50461 9.15265 8.0695C8.31035 8.63439 7.65438 9.43628 7.26763 10.3739C6.88089 11.3114 6.78072 12.3426 6.97979 13.337C7.17886 14.3315 7.66824 15.2446 8.38608 15.9611C9.10392 16.6775 10.018 17.1651 11.0129 17.3622C12.0077 17.5594 13.0387 17.4572 13.9755 17.0686C14.9123 16.6801 15.7129 16.0225 16.2761 15.1791C16.8394 14.3357 17.14 13.3443 17.14 12.3301C17.1413 11.6552 17.0092 10.9867 16.7512 10.3631C16.4933 9.73939 16.1146 9.17289 15.6369 8.69613C15.1592 8.21937 14.5919 7.84176 13.9678 7.58501C13.3436 7.32826 12.6749 7.19744 12 7.20008ZM12 15.6601C11.3414 15.6601 10.6976 15.4648 10.15 15.0989C9.60234 14.733 9.17552 14.2129 8.92348 13.6044C8.67144 12.996 8.6055 12.3264 8.73398 11.6804C8.86247 11.0345 9.17963 10.4411 9.64533 9.97541C10.111 9.50971 10.7044 9.19255 11.3503 9.06406C11.9963 8.93558 12.6659 9.00152 13.2743 9.25356C13.8828 9.5056 14.4029 9.93242 14.7688 10.4801C15.1347 11.0277 15.33 11.6715 15.33 12.3301C15.33 12.7674 15.2439 13.2004 15.0765 13.6044C14.9092 14.0085 14.6639 14.3755 14.3547 14.6848C14.0454 14.994 13.6784 15.2393 13.2743 15.4066C12.8703 15.574 12.4373 15.6601 12 15.6601Z" fill="white"/>
</g>
</g>
<defs>
<clipPath id="clip0_1_349">
<rect width="24" height="24" fill="white" transform="translate(0 0.330078)"/>
</clipPath>
<clipPath id="clip1_1_349">
<rect width="24" height="24" fill="white" transform="translate(0 0.330078)"/>
</clipPath>
</defs>
</svg>
