<svg width="24" height="29" viewBox="0 0 24 29" fill="none" xmlns="http://www.w3.org/2000/svg">
<g clip-path="url(#clip0_1_359)">
<g clip-path="url(#clip1_1_359)">
<path d="M22 6.13004C21.2483 6.45614 20.4534 6.67171 19.64 6.77004C20.4982 6.25736 21.1413 5.45083 21.45 4.50004C20.6436 4.98011 19.7608 5.31834 18.84 5.50004C18.2245 4.83262 17.405 4.38834 16.5098 4.2369C15.6147 4.08545 14.6945 4.2354 13.8938 4.66323C13.093 5.09106 12.4569 5.77257 12.0852 6.60088C11.7135 7.42919 11.6273 8.35743 11.84 9.24004C10.2094 9.15757 8.61444 8.733 7.15865 7.99391C5.70287 7.25481 4.41885 6.21774 3.39 4.95004C3.02914 5.58021 2.83952 6.29387 2.84 7.02004C2.83872 7.69443 3.00422 8.35866 3.32176 8.95361C3.63929 9.54856 4.09902 10.0557 4.66 10.43C4.00798 10.4123 3.36989 10.2373 2.8 9.92004V9.97004C2.80489 10.9149 3.13599 11.8291 3.73731 12.558C4.33864 13.2868 5.17326 13.7856 6.1 13.97C5.74326 14.0786 5.37287 14.1358 5 14.14C4.74189 14.137 4.48442 14.1136 4.23 14.07C4.49391 14.8828 5.00462 15.5931 5.69107 16.1022C6.37753 16.6112 7.20558 16.8936 8.06 16.91C6.6172 18.0453 4.83588 18.6649 3 18.67C2.66574 18.6711 2.33174 18.6511 2 18.61C3.87443 19.8203 6.05881 20.4627 8.29 20.46C9.82969 20.476 11.3571 20.185 12.7831 19.6041C14.2091 19.0231 15.505 18.1639 16.5952 17.0765C17.6854 15.9891 18.548 14.6954 19.1326 13.2709C19.7172 11.8464 20.012 10.3198 20 8.78004C20 8.61004 20 8.43004 20 8.25004C20.7847 7.66485 21.4615 6.94747 22 6.13004Z" fill="white"/>
</g>
</g>
<defs>
<clipPath id="clip0_1_359">
<rect width="24" height="24" fill="white" transform="translate(0 0.330078)"/>
</clipPath>
<clipPath id="clip1_1_359">
<rect width="24" height="24" fill="white" transform="translate(0 0.330078)"/>
</clipPath>
</defs>
</svg>
