<svg width="24" height="29" viewBox="0 0 24 29" fill="none" xmlns="http://www.w3.org/2000/svg">
<g clip-path="url(#clip0_1_354)">
<g clip-path="url(#clip1_1_354)">
<path d="M23 10.0401C23.0494 8.60871 22.7364 7.18808 22.09 5.91006C21.6514 5.38566 21.0427 5.03177 20.37 4.91006C17.5875 4.65758 14.7935 4.5541 12 4.60006C9.21667 4.55202 6.43273 4.65216 3.66003 4.90006C3.11185 4.99978 2.60454 5.2569 2.20003 5.64006C1.30003 6.47006 1.20003 7.89006 1.10003 9.09006C0.954938 11.2477 0.954938 13.4125 1.10003 15.5701C1.12896 16.2455 1.22952 16.9159 1.40003 17.5701C1.5206 18.0752 1.76455 18.5424 2.11003 18.9301C2.51729 19.3336 3.03641 19.6053 3.60003 19.7101C5.75594 19.9762 7.92824 20.0865 10.1 20.0401C13.6 20.0901 16.67 20.0401 20.3 19.7601C20.8775 19.6617 21.4112 19.3896 21.83 18.9801C22.11 18.7 22.3191 18.3572 22.44 17.9801C22.7976 16.8827 22.9733 15.7342 22.96 14.5801C23 14.0201 23 10.6401 23 10.0401ZM9.74003 15.1801V8.99006L15.66 12.1001C14 13.0201 11.81 14.0601 9.74003 15.1801Z" fill="white"/>
</g>
</g>
<defs>
<clipPath id="clip0_1_354">
<rect width="24" height="24" fill="white" transform="translate(0 0.330078)"/>
</clipPath>
<clipPath id="clip1_1_354">
<rect width="24" height="24" fill="white" transform="translate(0 0.330078)"/>
</clipPath>
</defs>
</svg>
